<?xml version="1.0" standalone="no"?><!DOCTYPE svg PUBLIC "-//W3C//DTD SVG 1.1//EN" "http://www.w3.org/Graphics/SVG/1.1/DTD/svg11.dtd"><svg t="1758074180248" class="icon" viewBox="0 0 1024 1024" version="1.1" xmlns="http://www.w3.org/2000/svg" p-id="1110" xmlns:xlink="http://www.w3.org/1999/xlink" width="200" height="200"><path d="M732.8768 960.2048a108.2368 108.2368 0 0 1-42.4448-8.704l-160.256-68.096a46.6432 46.6432 0 0 0-36.352 0l-160.256 68.096a107.9808 107.9808 0 0 1-149.76-108.8512l15.36-173.4144a46.8992 46.8992 0 0 0-11.264-34.6112L73.5232 503.296a107.9296 107.9296 0 0 1 57.1904-176.0768l169.6768-39.1168a46.7456 46.7456 0 0 0 29.44-21.3504l89.6-149.2992a107.9808 107.9808 0 0 1 185.1392 0l89.6 149.2992a46.7456 46.7456 0 0 0 29.44 21.3504l169.6768 39.1168a107.9296 107.9296 0 0 1 57.1904 176.0768L836.1984 634.88a46.8992 46.8992 0 0 0-11.264 34.6112l15.36 173.4144a108.1856 108.1856 0 0 1-107.52 117.76zM512 818.2784a108.4928 108.4928 0 0 1 42.24 8.5504l160.2048 68.096a46.5408 46.5408 0 0 0 64.5632-46.8992l-15.36-173.4144a108.544 108.544 0 0 1 26.112-80.3328l114.2784-131.328a46.5408 46.5408 0 0 0-24.6784-75.8784L709.8368 348.16a108.4928 108.4928 0 0 1-68.352-49.664l-89.6-149.248a46.5408 46.5408 0 0 0-79.7696 0l-89.6 149.0944A108.4928 108.4928 0 0 1 314.1632 348.16l-169.6256 38.912a46.5408 46.5408 0 0 0-24.6784 75.8784l114.2784 131.3792a108.3392 108.3392 0 0 1 26.112 80.2816l-15.36 173.4144a46.5408 46.5408 0 0 0 64.5632 46.8992l160.2048-68.096a108.4928 108.4928 0 0 1 42.3424-8.5504z" fill="#555555" p-id="1111"></path><path d="M360.4992 490.4448a30.72 30.72 0 0 1-10.24-59.6992l67.5328-23.5008a20.48 20.48 0 0 0 9.4208-6.7584l47.5648-60.416a30.72 30.72 0 1 1 48.2816 37.9904l-47.4112 60.416a81.4592 81.4592 0 0 1-37.5296 26.7776l-67.5328 23.5008a30.208 30.208 0 0 1-10.0864 1.6896z" fill="#555555" p-id="1112"></path></svg>