<?xml version="1.0" standalone="no"?><!DOCTYPE svg PUBLIC "-//W3C//DTD SVG 1.1//EN" "http://www.w3.org/Graphics/SVG/1.1/DTD/svg11.dtd"><svg t="1758074175331" class="icon" viewBox="0 0 1024 1024" version="1.1" xmlns="http://www.w3.org/2000/svg" p-id="957" xmlns:xlink="http://www.w3.org/1999/xlink" width="200" height="200"><path d="M338.2784 81.92h-114.176A137.1136 137.1136 0 0 0 87.04 218.6752V332.8a137.1136 137.1136 0 0 0 137.0624 136.96h179.5072a71.68 71.68 0 0 0 71.68-71.68V218.6752A137.1136 137.1136 0 0 0 338.2784 81.92z m75.4688 316.416a10.24 10.24 0 0 1-10.24 10.24H224.1024A75.5712 75.5712 0 0 1 148.48 332.8V218.6752A75.52 75.52 0 0 1 224.1024 143.36h114.176a75.52 75.52 0 0 1 75.4688 75.3152zM796.2624 81.92h-114.1248a137.1136 137.1136 0 0 0-136.96 136.9088v179.3536a71.68 71.68 0 0 0 71.68 71.68h179.5072A137.0624 137.0624 0 0 0 933.1712 332.8V218.6752A137.0624 137.0624 0 0 0 796.2624 81.92z m75.4688 250.88a75.5712 75.5712 0 0 1-75.4688 75.52h-179.5072a10.24 10.24 0 0 1-10.24-10.24V218.6752A75.5712 75.5712 0 0 1 682.1376 143.36h114.1248a75.52 75.52 0 0 1 75.4688 75.4688zM403.6096 538.4704H224.1024A137.1136 137.1136 0 0 0 87.04 675.4304v114.1248A137.0624 137.0624 0 0 0 224.1024 926.72h114.176a137.0624 137.0624 0 0 0 136.9088-136.9088v-179.7632a71.68 71.68 0 0 0-71.5776-71.5776z m10.24 250.88A75.52 75.52 0 0 1 338.2784 865.28h-114.176A75.52 75.52 0 0 1 148.48 789.5552v-114.1248a75.5712 75.5712 0 0 1 75.4688-75.52h179.6608a10.24 10.24 0 0 1 10.24 10.24zM796.2624 538.4704h-179.5072a71.68 71.68 0 0 0-71.68 71.68v179.5072A137.0624 137.0624 0 0 0 682.1376 926.72h114.1248a137.0112 137.0112 0 0 0 136.9088-136.9088v-114.3808a137.0624 137.0624 0 0 0-136.9088-136.96z m75.4688 250.88A75.52 75.52 0 0 1 796.2624 865.28h-114.1248a75.5712 75.5712 0 0 1-75.52-75.4688v-179.7632a10.24 10.24 0 0 1 10.24-10.24h179.5072a75.5712 75.5712 0 0 1 75.4688 75.52z" fill="#555555" p-id="958"></path></svg>