<?xml version="1.0" standalone="no"?><!DOCTYPE svg PUBLIC "-//W3C//DTD SVG 1.1//EN" "http://www.w3.org/Graphics/SVG/1.1/DTD/svg11.dtd"><svg t="1757861048107" class="icon" viewBox="0 0 1024 1024" version="1.1" xmlns="http://www.w3.org/2000/svg" p-id="1863" xmlns:xlink="http://www.w3.org/1999/xlink" width="200" height="200"><path d="M418.391771 972.8a36.571429 36.571429 0 0 1-24.576-9.435429l-100.907885-90.989714a36.395886 36.395886 0 0 1-9.216-41.179428l99.971657-238.167772a36.717714 36.717714 0 0 1 47.937828-19.602286 36.483657 36.483657 0 0 1 19.6608 47.791543l-89.965714 214.3232 81.685943 73.654857a36.425143 36.425143 0 0 1 2.589257 51.580343 36.571429 36.571429 0 0 1-27.179886 12.024686z" fill="#F0F5FC" p-id="1864"></path><path d="M445.527771 960.8192a36.352 36.352 0 0 1-27.150628 11.951543 36.322743 36.322743 0 0 1-24.4736-9.464686l-100.951772-90.960457a36.264229 36.264229 0 0 1-9.333028-41.1648l100.117943-238.1824a36.483657 36.483657 0 0 1 47.806171-19.602286 36.498286 36.498286 0 0 1 19.6608 47.8208l-57.475657 136.923429c-0.658286-0.146286-1.170286-0.146286-1.828571-0.146286-39.818971 0-72.118857 30.368914-72.118858 68.052114 0 37.668571 32.299886 68.052114 72.118858 68.052115 9.991314 0 19.6608-1.989486 28.320914-5.485715l22.820571 20.5824a36.425143 36.425143 0 0 1 2.486857 51.638858z" fill="#E1EBFA" p-id="1865"></path><path d="M606.500571 921.409829a36.571429 36.571429 0 0 1-15.886628-3.642515 36.4544 36.4544 0 0 1-17.086172-48.757028l89.819429-185.563429-86.074514-104.579657a36.425143 36.425143 0 0 1 5.090743-51.390171 36.7616 36.7616 0 0 1 51.580342 5.076114l100.907886 122.587428c9.055086 11.000686 10.869029 26.229029 4.681143 39.029029l-99.986286 206.570057a36.6592 36.6592 0 0 1-33.045943 20.670172z" fill="#F0F5FC" p-id="1866"></path><path d="M739.547429 694.242743l-99.9424 206.496914a36.790857 36.790857 0 0 1-33.148343 20.743314 36.746971 36.746971 0 0 1-32.987429-52.458057l21.328457-44.149028c2.984229 0.658286 6.319543 0.833829 9.493943 0.833828 33.645714 0 61.1328-24.576 61.1328-54.784 0-17.422629-9.172114-33.031314-23.493486-42.978743l21.489372-44.485485-86.1184-104.579657a36.483657 36.483657 0 0 1 4.988343-51.448686 36.820114 36.820114 0 0 1 51.638857 5.134628l100.951771 122.499658c8.996571 11.117714 10.825143 26.229029 4.666515 39.175314z" fill="#E1EBFA" p-id="1867"></path><path d="M789.855086 212.114286l-0.994743 272.427885c-0.117029 40.696686-26.945829 81.334857-80.5888 112.391315-107.9296 62.507886-283.648 62.464-392.206629 0-54.710857-31.466057-82.007771-72.747886-81.890743-113.956572l0.994743-272.457143c-0.117029 41.223314 27.179886 82.505143 81.890743 113.9712 108.544 62.464 284.277029 62.507886 392.206629 0 53.642971-31.056457 80.457143-71.694629 80.5888-112.391314z" fill="#999999" p-id="1868"></path><path d="M789.855086 212.055771l-1.009372 272.544915c-0.160914 40.667429-26.975086 81.334857-80.618057 112.376685-107.944229 62.405486-283.677257 62.405486-392.118857 0-54.798629-31.5392-82.1248-72.864914-81.963886-114.029714l1.009372-272.062171c0 41.1648 27.311543 82.3296 81.949257 113.532343 2.165029 1.3312 4.490971 2.486857 6.831543 3.657142-0.672914 5.983086-0.994743 12.112457-0.994743 18.256458 0 99.4304 82.622171 179.931429 184.568686 179.931428 101.931886 0 184.554057-80.501029 184.554057-179.931428 0-4.139886-0.160914-8.455314-0.497372-12.609829 6.173257-2.823314 11.995429-5.983086 17.656686-9.303771 53.642971-31.0272 80.457143-71.694629 80.632686-112.362058z" fill="#666666" p-id="1869"></path><path d="M512.139259 371.41881a277.343086 160.080457 0.17 1 0 0.949935-320.159505 277.343086 160.080457 0.17 1 0-0.949935 320.159505Z" fill="#CCCCCC" p-id="1870"></path><path d="M512.390393 286.76364a130.677029 75.424914 0.17 1 0 0.44758-150.849164 130.677029 75.424914 0.17 1 0-0.44758 150.849164Z" fill="#999999" p-id="1871"></path></svg>