<?xml version="1.0" standalone="no"?><!DOCTYPE svg PUBLIC "-//W3C//DTD SVG 1.1//EN" "http://www.w3.org/Graphics/SVG/1.1/DTD/svg11.dtd"><svg t="1757893844937" class="icon" viewBox="0 0 1276 1024" version="1.1" xmlns="http://www.w3.org/2000/svg" p-id="939" xmlns:xlink="http://www.w3.org/1999/xlink" width="249.21875" height="200"><path d="M394.860019 190.315414l18.561795-116.524295L378.624148 1.048947 186.302053 72.742173 0 949.84403l34.843273 73.107023 227.119761 1.048947 27.455039-172.346502c3.466085-21.617423 22.529551-36.849953 44.420612-36.25707 294.936445 8.072329 660.927627-429.794504 942.866254-340.177972-11.766445-25.129114-34.843273-72.742173-34.843272-72.742172s-48.707611-52.264909-189.722532-64.533025c-194.511201-16.87436-513.254175-9.075669-657.279116-147.719057z" fill="#2E62CC" p-id="940"></path><path d="M365.535118 83.140427l13.08903-82.09148L151.504387 0 0 950.208881l227.119761 1.048946 24.718657-154.970471c4.834276-30.373848 30.738699-52.903398 61.477397-53.541888 292.382488-5.928829 651.167862-428.426313 928.545852-340.223578-252.020844-290.147775-589.325614-45.423952-853.432148-259.819534-17.695275-14.366009-26.497305-37.077985-22.894401-59.561929z" fill="#3FA9F5" p-id="941"></path><path d="M933.518463 316.530279m18.72353 41.085037l0.018913 0.0415q18.72353 41.085037-22.361507 59.808567l-46.687542 21.276739q-41.085037 18.72353-59.808567-22.361507l-0.018913-0.0415q-18.72353-41.085037 22.361507-59.808567l46.687542-21.276739q41.085037-18.72353 59.808567 22.361507Z" fill="#97F0FF" p-id="942"></path></svg>