<?xml version="1.0" standalone="no"?><!DOCTYPE svg PUBLIC "-//W3C//DTD SVG 1.1//EN" "http://www.w3.org/Graphics/SVG/1.1/DTD/svg11.dtd"><svg t="1757861100553" class="icon" viewBox="0 0 1024 1024" version="1.1" xmlns="http://www.w3.org/2000/svg" p-id="1287" xmlns:xlink="http://www.w3.org/1999/xlink" width="200" height="200"><path d="M349.446244 668.484683c4.195902 0 7.867317 3.409171 7.867317 7.292878v194.759805c0 3.933659-3.69639 7.380293-7.917268 7.380293H153.500098c-4.195902 0-7.867317-3.409171-7.867318-7.305366V675.790049c0-3.883707 3.671415-7.292878 7.867318-7.292878h195.946146m0-90.112H153.500098c-53.997268 0-97.966829 43.719805-97.96683 97.39239v194.834732c0 53.672585 43.969561 97.404878 97.96683 97.404878h195.896195c54.009756 0 97.966829-43.732293 98.01678-97.404878V675.790049c0-53.672585-43.957073-97.404878-97.966829-97.404878zM349.446244 190.401561c4.195902 0 7.867317 3.409171 7.867317 7.292878v194.759805c0 3.933659-3.69639 7.380293-7.917268 7.380293H153.500098c-4.195902 0-7.867317-3.409171-7.867318-7.305366V197.694439c0-3.883707 3.671415-7.292878 7.867318-7.292878h195.946146m0-90.099512H153.500098c-53.997268 0-97.966829 43.719805-97.96683 97.39239v194.834732c0 53.672585 43.969561 97.404878 97.96683 97.404878h195.896195c54.009756 0 97.966829-43.719805 98.01678-97.404878V197.694439c0-53.672585-43.957073-97.39239-97.966829-97.39239zM829.302634 669.371317c4.195902 0 7.879805 3.409171 7.879805 7.305366v194.834732c0 3.883707-3.683902 7.292878-7.879805 7.292878H633.344c-4.195902 0-7.867317-3.409171-7.867317-7.292878V676.676683c0-3.896195 3.671415-7.305366 7.867317-7.305366h195.958634m0-90.099512H633.344c-53.997268 0-97.966829 43.732293-97.966829 97.404878v194.834732c0 53.672585 44.007024 97.39239 97.966829 97.39239h195.946146c54.009756 0 97.979317-43.719805 97.979317-97.39239V676.676683c0-53.672585-44.007024-97.404878-97.966829-97.404878zM732.459707 145.18322c2.222829 0 4.083512 0.73678 5.557073 2.185365l138.314927 137.740488c0.499512 0.499512 2.035512 2.023024 2.035513 5.00761 0.012488 2.060488-0.73678 3.833756-2.122927 5.23239l-138.52722 137.990244c-1.511024 1.498537-3.446634 2.27278-5.731902 2.272781-2.222829 0-4.096-0.73678-5.544586-2.185366l-138.314926-137.740488c-0.499512-0.499512-2.035512-2.023024-2.035513-5.00761 0-2.060488 0.73678-3.833756 2.122927-5.23239l138.539707-138.002732c1.511024-1.498537 3.421659-2.260293 5.706927-2.260292m0-90.099513c-25.088 0-50.200976 9.515707-69.294829 28.534634L524.625171 221.621073c-38.150244 38.050341-38.200195 99.939902-0.099903 137.902829L662.852683 497.289366c19.031415 18.968976 44.069463 28.434732 69.12 28.434732 25.100488 0 50.213463-9.515707 69.307317-28.534635L939.832195 359.186732c38.150244-38.050341 38.200195-99.939902 0.099903-137.90283L801.592195 83.530927c-19.043902-18.968976-44.069463-28.44722-69.132488-28.44722z" fill="#020202" p-id="1288"></path></svg>