<?xml version="1.0" standalone="no"?><!DOCTYPE svg PUBLIC "-//W3C//DTD SVG 1.1//EN" "http://www.w3.org/Graphics/SVG/1.1/DTD/svg11.dtd"><svg t="1757893872659" class="icon" viewBox="0 0 1024 1024" version="1.1" xmlns="http://www.w3.org/2000/svg" p-id="1863" xmlns:xlink="http://www.w3.org/1999/xlink" width="200" height="200"><path d="M507.684571 963.774171l-72.411428-42.0864c-1.6384-0.906971-2.750171-2.750171-3.115886-5.134628l-10.474057-65.053257c-0.365714-2.384457-1.287314-4.037486-2.750171-4.959086l72.382171 42.071771c1.667657 0.9216 2.589257 2.574629 2.954971 4.973715l10.283886 65.214171c0.555886 2.399086 1.653029 4.052114 3.130514 4.973714zM900.388571 279.800686a6.787657 6.787657 0 0 0-4.973714 0.585143l-61.147428 24.576c-2.340571 0.877714-4.388571 0.731429-5.997715-0.292572l-72.557714-42.130286c1.609143 1.024 3.657143 1.024 5.997714 0.292572l61.147429-24.576c2.340571-1.024 4.534857-1.024 6.290286 0zM272.310857 955.128686l-72.3968-42.071772c-3.861943-2.194286-4.227657-8.821029-1.287314-15.433143l36.571428-79.5648 72.557715 42.0864-36.5568 79.550172c-2.925714 6.802286-2.56 13.4144 1.111771 15.433143zM823.881143 110.665143l-48.683886-27.194514c-2.194286-1.097143-4.973714-0.731429-7.709257 0.9216a21.065143 21.065143 0 0 0-6.612114 6.2464l-49.795657 70.933942-72.586972-42.0864 49.795657-70.919314a23.259429 23.259429 0 0 1 6.612115-6.2464c2.940343-1.653029 5.705143-2.018743 7.723885-0.9216l48.683886 27.209143z" fill="#E6D9FF" p-id="1864"></path><path d="M195.554743 719.286857l72.528457 42.144914c1.4336 0.833829 2.486857 2.340571 2.984229 4.476343 7.255771 32.256 19.792457 59.040914 36.878628 79.828115 2.369829 2.954971 2.384457 8.484571-0.190171 14.423771l-72.513829-42.130286c2.574629-5.953829 2.545371-11.483429 0.190172-14.4384-17.1008-20.772571-29.622857-47.572114-36.878629-79.828114a6.699886 6.699886 0 0 0-2.998857-4.476343zM605.037714 177.590857l-72.513828-42.159543c1.477486 0.863086 3.408457 0.980114 5.588114 0.321829 31.568457-9.991314 61.293714-12.712229 88.093257-8.747886a9.347657 9.347657 0 0 0 5.851429-1.448228c2.2528-1.287314 4.5056-3.364571 6.465828-6.056229l72.513829 42.130286a21.752686 21.752686 0 0 1-6.436572 6.070857 9.347657 9.347657 0 0 1-5.866057 1.462857c-26.799543-3.978971-56.5248-1.272686-88.107885 8.733257-2.179657 0.658286-4.096 0.541257-5.573486-0.321828zM492.602514 234.7008c-0.731429 6.2464-4.388571 12.858514-9.552457 16.896-31.232 26.272914-60.445257 57.504914-86.893714 92.0576-1.8432 2.194286-3.861943 4.227657-5.895314 5.3248-2.194286 1.287314-4.4032 1.8432-6.231772 1.287314l-72.586971-42.071771c1.8432 0.365714 4.037486 0 6.2464-1.287314 2.018743-1.287314 4.227657-3.130514 6.070857-5.514972 26.272914-34.362514 55.486171-65.594514 86.893714-91.867428a29.257143 29.257143 0 0 0 9.567086-16.910629z" fill="#CCB3FF" p-id="1865"></path><path d="M261.8368 635.245714l-61.557029 47.221029c-5.514971 4.227657-9.362286 11.936914-9.362285 17.993143l0.541257 78.467657c0.190171 3.306057 1.287314 5.705143 3.306057 6.977828l-72.557714-42.261942c-2.048-1.097143-3.145143-3.4816-3.145143-6.977829l-0.731429-78.453029c0-6.070857 3.861943-13.604571 9.376915-17.8176l61.557028-47.396571zM588.6976 102.4c-2.018743-1.097143-4.959086-0.9216-7.899429 0.731429l-68.344685 39.877485c-5.3248 3.130514-9.918171 10.283886-10.839772 16.910629-2.194286 19.104914-6.802286 56.758857-9.0112 74.781257l-72.382171-42.0864c2.018743-17.993143 6.612114-55.851886 8.996571-74.781257 0.731429-6.787657 5.339429-13.955657 10.839772-16.896l68.169143-39.877486c3.130514-1.828571 5.880686-2.018743 7.899428-0.731428z" fill="#E6D9FF" p-id="1866"></path><path d="M261.763657 635.172571l-72.513828-42.130285c4.447086-3.262171 7.840914-9.128229 8.879542-14.862629 7.050971-40.389486 19.397486-81.685943 36.322743-122.236343 2.340571-5.661257 2.194286-11.117714-0.394971-13.809371l72.513828 42.130286c2.603886 2.691657 2.735543 8.148114 0.394972 13.824-16.925257 40.5504-29.257143 81.832229-36.308114 122.236342-1.053257 5.719771-4.432457 11.600457-8.894172 14.848z" fill="#CCB3FF" p-id="1867"></path><path d="M384.029257 350.266514l-51.273143-12.317257c-1.8432-0.541257-4.037486 0-6.436571 1.287314-2.925714 1.653029-5.690514 4.593371-7.709257 8.279772l-47.952457 83.412114c-3.6864 6.612114-4.242286 13.780114-0.9216 16.896l36.922514 36.381257-72.557714-42.071771-36.937143-36.381257c-3.130514-3.115886-2.7648-10.474057 1.097143-17.086172l47.776914-83.412114c2.018743-3.671771 4.959086-6.436571 7.709257-8.265143 2.384457-1.287314 4.593371-1.8432 6.612114-1.287314l51.082972 12.4928z" fill="#E6D9FF" p-id="1868"></path><path d="M904.8064 287.407543l0.8192 78.116571c0 6.334171-3.949714 14.0288-9.362286 18.080915l-61.776457 47.425828c-4.461714 3.364571-7.855543 9.245257-8.894171 14.848-7.050971 40.521143-19.397486 81.8176-36.191086 122.1632-2.340571 5.807543-2.325943 11.337143 0.512 13.897143l36.7616 36.278857c3.291429 3.086629 2.720914 10.4448-1.024 17.188572l-47.806171 83.382857c-2.106514 3.642514-4.973714 6.568229-7.855543 8.235885-2.238171 1.287314-4.5056 1.828571-6.4512 1.360458l-51.273143-12.522058c-1.872457-0.438857-4.037486 0.073143-6.217143 1.316572-2.077257 1.214171-4.154514 3.072-5.997714 5.456457-26.331429 34.523429-55.617829 65.609143-86.908343 92.042971-4.827429 3.861943-8.674743 10.678857-9.362286 16.749715-2.179657 17.993143-6.773029 55.749486-9.069714 74.898285-0.804571 6.538971-5.485714 13.706971-10.883657 16.822858l-68.271543 39.950628c-5.266286 3.042743-9.976686 1.170286-10.927543-4.344686l-10.415543-65.155657c-0.599771-4.783543-4.008229-6.582857-8.484571-5.237028-31.568457 10.005943-61.293714 12.726857-88.093257 8.616228a9.1136 9.1136 0 0 0-5.705143 1.418972 21.650286 21.650286 0 0 0-6.495086 6.158628l-49.9712 70.977829c-1.901714 2.779429-4.169143 4.885943-6.436571 6.187886-2.837943 1.6384-5.661257 1.989486-7.753143 0.789942l-48.610743-27.150628c-4.008229-2.018743-4.490971-8.747886-1.462857-15.637943l36.571428-79.5648c2.56-5.9392 2.545371-11.4688 0.175543-14.423771-17.086171-20.772571-29.622857-47.572114-36.878628-79.828115-1.067886-4.520229-4.608-6.261029-9.069715-4.637257l-61.0304 24.576c-5.514971 2.238171-9.391543-0.9216-9.4208-6.977828l-0.687543-78.453029c-0.014629-6.070857 3.847314-13.692343 9.362286-17.963886l61.5424-47.279543c4.461714-3.247543 7.840914-9.128229 8.894172-14.848 7.050971-40.404114 19.382857-81.685943 36.308114-122.236342 2.340571-5.675886 2.194286-11.117714-0.394972-13.809372l-36.864-36.366628c-3.189029-3.159771-2.750171-10.4448 0.994743-17.056915l47.835429-83.382857c2.077257-3.6864 4.944457-6.597486 7.811657-8.265143 2.282057-1.316571 4.564114-1.828571 6.480457-1.3312l51.156114 12.463543c1.857829 0.438857 4.037486-0.073143 6.217143-1.3312 2.077257-1.199543 4.154514-3.072 5.983086-5.441828 26.331429-34.377143 55.632457-65.609143 86.922971-91.911315 5.046857-4.125257 8.777143-10.737371 9.581715-16.881371 2.077257-18.066286 6.670629-55.822629 8.967314-74.839772 0.789943-6.670629 5.471086-13.824 10.869029-16.939885l68.271542-39.8336c5.280914-3.042743 9.991314-1.316571 10.942172 4.359314l10.415543 65.009371c0.585143 4.783543 4.008229 6.729143 8.484571 5.368686 31.568457-10.005943 61.293714-12.712229 88.093257-8.747886a9.347657 9.347657 0 0 0 5.851429-1.462857c2.238171-1.287314 4.5056-3.364571 6.4512-6.0416l49.8688-70.919314a21.065143 21.065143 0 0 1 6.5536-6.319543c2.808686-1.609143 5.617371-2.004114 7.753143-0.863086l48.610743 27.165258c3.876571 2.208914 4.373943 8.952686 1.3312 15.828114l-36.425143 79.506286c-2.691657 5.866057-2.677029 11.395657-0.321829 14.350628 17.1008 20.772571 29.520457 47.645257 36.776229 79.7696 1.067886 4.5056 4.593371 6.392686 9.069714 4.754286l61.147429-24.502857c5.500343-2.369829 9.391543 0.789943 9.406171 6.992457z" fill="#B38CFF" p-id="1869"></path><path d="M904.777143 287.407543c0-6.144-3.949714-9.362286-9.362286-7.021714l-61.147428 24.576c-4.534857 1.609143-8.045714-0.292571-9.069715-4.827429-7.314286-32.036571-19.748571-58.953143-36.864-79.725714-2.340571-2.925714-2.340571-8.484571 0.438857-14.336l36.425143-79.579429c2.925714-6.875429 2.486857-13.604571-1.316571-15.798857l-48.713143-27.209143c-2.048-1.024-4.973714-0.731429-7.753143 0.877714-2.194286 1.316571-4.534857 3.510857-6.582857 6.290286l-49.737143 70.948572c-2.048 2.779429-4.242286 4.827429-6.582857 6.144-2.048 1.170286-3.949714 1.609143-5.851429 1.462857-26.770286-4.096-56.466286-1.316571-88.064 8.630857-4.388571 1.462857-7.899429-0.585143-8.484571-5.266286l-10.386286-65.097143c-0.877714-5.558857-5.705143-7.314286-10.971428-4.388571l-68.169143 39.936c-5.412571 3.072-10.093714 10.24-10.971429 16.969143v0.292571c75.776 47.542857 126.244571 131.803429 126.244572 227.913143 0 148.333714-120.246857 268.726857-268.726857 268.726857a263.314286 263.314286 0 0 1-100.352-19.602286l-58.514286 45.202286c-5.558857 4.242286-9.362286 11.849143-9.362286 17.846857l0.585143 78.555429c0 5.997714 3.949714 9.216 9.508571 6.875428l61.001143-24.576c4.388571-1.609143 8.045714 0.146286 9.069715 4.681143 7.314286 32.182857 19.748571 59.099429 36.864 79.872 2.340571 2.925714 2.340571 8.484571-0.146286 14.336l-36.571429 79.579429c-3.072 6.875429-2.633143 13.604571 1.462857 15.652571l48.566858 27.209143c2.048 1.170286 4.973714 0.731429 7.753142-0.877714 2.340571-1.316571 4.534857-3.364571 6.436572-6.144l50.029714-70.948572c1.901714-2.779429 4.242286-4.827429 6.436572-6.144 2.048-1.170286 3.949714-1.755429 5.705142-1.462857 26.770286 4.096 56.612571 1.316571 88.064-8.630857 4.534857-1.316571 7.899429 0.438857 8.484572 5.266286l10.386286 65.097143c1.024 5.558857 5.705143 7.460571 10.971428 4.388571l68.315429-39.936c5.412571-3.072 10.093714-10.24 10.825143-16.822857 2.340571-19.163429 6.875429-56.905143 9.069714-74.898286 0.731429-6.144 4.534857-12.873143 9.362286-16.822857 31.305143-26.331429 60.562286-57.490286 87.04-92.013714 1.755429-2.340571 3.803429-4.242286 5.851428-5.412572 2.194286-1.316571 4.388571-1.755429 6.290286-1.316571l51.2 12.580571c2.048 0.438857 4.242286-0.146286 6.582857-1.462857 2.779429-1.609143 5.705143-4.534857 7.753143-8.192l47.835428-83.382857c3.803429-6.729143 4.388571-14.043429 1.024-17.261714L789.942857 581.880686c-2.925714-2.486857-2.925714-8.045714-0.585143-13.897143 16.822857-40.228571 29.110857-81.627429 36.278857-122.148572 1.024-5.558857 4.388571-11.410286 8.777143-14.774857l61.878857-47.396571c5.412571-4.096 9.362286-11.849143 9.362286-18.139429z" fill="#9966FF" p-id="1870"></path><path d="M547.620571 315.830857c104.5504-60.298971 189.615543-12.170971 189.952 108.002743s-84.1728 266.1376-188.708571 326.436571-189.615543 12.1856-189.966629-107.988114c-0.336457-120.188343 84.187429-266.1376 188.7232-326.436571z" fill="#F0F5FC" p-id="1871"></path><path d="M737.543314 423.760457c0.394971 120.188343-84.114286 266.313143-188.679314 326.509714-104.594286 60.386743-189.703314 12.141714-189.908114-108.032 0-18.037029 1.828571-36.673829 5.266285-55.530057a142.921143 142.921143 0 0 0 44.792686 7.094857c80.457143 0 145.5104-65.053257 145.5104-145.5104a143.872 143.872 0 0 0-45.597257-105.589028 296.3456 296.3456 0 0 1 38.7072-26.960457c104.594286-60.181943 189.703314-12.156343 189.908114 108.017371z" fill="#E1EBFA" p-id="1872"></path><path d="M514.677029 659.0464c-4.900571 0-9.859657-1.2288-14.423772-3.818057l-62.317714-35.371886a29.257143 29.257143 0 0 1 28.891428-50.8928l37.0688 21.035886 110.372572-191.195429a29.257143 29.257143 0 1 1 50.688 29.257143l-124.913372 216.356572a29.257143 29.257143 0 0 1-25.365942 14.628571z" fill="#FF408C" p-id="1873"></path></svg>