<?xml version="1.0" standalone="no"?><!DOCTYPE svg PUBLIC "-//W3C//DTD SVG 1.1//EN" "http://www.w3.org/Graphics/SVG/1.1/DTD/svg11.dtd"><svg t="1757859936435" class="icon" viewBox="0 0 1024 1024" version="1.1" xmlns="http://www.w3.org/2000/svg" p-id="1426" xmlns:xlink="http://www.w3.org/1999/xlink" width="200" height="200"><path d="M347.76 634.52l-53.176-30.704a55.036 55.036 0 0 1-20.144-75.18 55.036 55.036 0 0 1 75.18-20.144l43.648 25.2a44 44 0 0 1 16.104 60.108l-16.532 28.64a33 33 0 0 1-45.08 12.08z" fill="#93999A" p-id="1427"></path><path d="M567.02 762.572L404.92 667.52a33 33 0 0 1-12.08-45.08l26.2-45.376a44 44 0 0 1 37-21.988l150.528-3.784s83.656 166.184-39.544 211.284z" fill="#93999A" p-id="1428"></path><path d="M595.028 72.56a37.972 37.972 0 1 0 37.968 37.968 38.016 38.016 0 0 0-37.968-37.972zM114.312 434.608a37.968 37.968 0 1 0 37.972 37.968 38.012 38.012 0 0 0-37.972-37.968z" fill="#FCBC00" p-id="1429"></path><path d="M594.448 98.288H511.92a12 12 0 0 0-9.86 5.16l-48.66 70.16a162.24 162.24 0 0 1 6.288 9.944 162.168 162.168 0 0 1 6.828 13.256l51.68-74.52h76.248a12 12 0 0 0 0-24z" fill="#FCBC00" p-id="1430"></path><path d="M321.12 436.12a173.256 173.256 0 0 1-44.88-5.944 171.332 171.332 0 1 1 44.88 5.944z m-0.52-320.8a148.408 148.408 0 1 0 128.7 74.232A147.36 147.36 0 0 0 359.232 120.44a149.176 149.176 0 0 0-38.636-5.12z" fill="#FCBC00" p-id="1431"></path><path d="M277.996 362.896a11.928 11.928 0 0 1-5.024-1.108 110.72 110.72 0 1 1 156.732-90.492 12 12 0 1 1-23.9-2.18A86.712 86.712 0 1 0 283.032 340a12 12 0 0 1-5.04 22.896z" fill="#FCBC00" p-id="1432"></path><path d="M845.244 759.772L722.224 830.8l-85.808-148.616 123.02-71.028z" fill="#93999A" p-id="1433"></path><path d="M803.696 783.764l-39.92 23.044-85.804-148.616 39.916-23.048z" fill="#C7CED0" p-id="1434"></path><path d="M868.372 723.524L908.928 752l35.144 60.868-225.292 130.072-35.144-60.868-4.38-49.36z" fill="#93999A" p-id="1435"></path><path d="M694.48 900.848l0.644-1.084 223.384-128.972h1.272L908.928 752l-40.556-28.476-189.116 109.188 4.384 49.36zM419.936 469.6l28.696-16.568a33 33 0 0 1 45.08 12.08l3.3 5.72 139.08-80.304a110 110 0 0 1 150.264 40.264l62.948 109.028a110 110 0 0 1 14.708 52.44l1.344 57.768a39.708 39.708 0 0 1-49.04 39.52 110 110 0 0 0-80.876 11.652l-9.532 5.504a110 110 0 0 0-50.528 64.212 39.708 39.708 0 0 1-58.744 22.712l-73.36-44.668 30.76-31.268a93.384 93.384 0 0 0 14.3-112.18 44 44 0 0 0-60.488-15.88 65.776 65.776 0 0 1-90.428-23.744l-29.56-51.204a33 33 0 0 1 12.076-45.084z" fill="#41767F" p-id="1436"></path><path d="M331.129101 381.791558m28.578839-16.5l28.696618-16.568q28.578838-16.5 45.078838 12.078838l27.216 47.139495q16.5 28.578838-12.078838 45.078838l-28.696618 16.568q-28.578838 16.5-45.078839-12.078838l-27.216-47.139495q-16.5-28.578838 12.078839-45.078838Z" fill="#41767F" p-id="1437"></path><path d="M314.36 353.832l-25.536-44.224a49.568 49.568 0 0 1 18.144-67.708 49.568 49.568 0 0 1 67.708 18.144l25.532 44.224a33 33 0 0 1-12.08 45.08l-28.692 16.564a33 33 0 0 1-45.08-12.08z" fill="#41767F" p-id="1438"></path><path d="M642.56 387.104l31.932 54.96a12 12 0 0 0 20.752-12.056l-29.744-51.2a109.632 109.632 0 0 0-22.936 8.296zM602.008 481.588a12 12 0 1 0 20.756-12.052l-31.02-53.4-20.784 12zM494.652 467.588l32.444 55.856a12 12 0 1 0 20.756-12.052l-30.412-52.36-20.428 11.8-3.304-5.72c-0.056-0.1-0.128-0.192-0.188-0.292a11.888 11.888 0 0 0 1.132 2.764zM855.704 676.84l-95.212-165.064a12 12 0 0 0-20.788 11.992l95.58 165.708a39.92 39.92 0 0 0 20.42-12.636zM778.848 687.092l-51.84-89.928a12 12 0 1 0-20.788 11.984l48.084 83.424a109.984 109.984 0 0 1 24.544-5.48zM706.812 720.704l-34.88-60.536-2.48-41.368a11.996 11.996 0 0 0-1.588-5.28l-34.24-59.316a12 12 0 1 0-20.788 12l32.828 56.864 2.48 41.364a12.008 12.008 0 0 0 1.584 5.272l40.424 70.16a109.968 109.968 0 0 1 16.66-19.16z" fill="#C7CED0" p-id="1439"></path><path d="M623.488 560.908m-29.152 0a29.152 29.152 0 1 0 58.304 0 29.152 29.152 0 1 0-58.304 0Z" fill="#93999A" p-id="1440"></path><path d="M753.288 523.508m-29.152 0a29.152 29.152 0 1 0 58.304 0 29.152 29.152 0 1 0-58.304 0Z" fill="#93999A" p-id="1441"></path><path d="M716.62 603.44m-29.152 0a29.152 29.152 0 1 0 58.304 0 29.152 29.152 0 1 0-58.304 0Z" fill="#93999A" p-id="1442"></path><path d="M234.256 398.644l-43.12 62.172h-76.24a12 12 0 1 0 0 24h82.524a12 12 0 0 0 9.86-5.16l48.232-69.548a160.288 160.288 0 0 1-21.256-11.464z" fill="#FCBC00" p-id="1443"></path></svg>