<?xml version="1.0" standalone="no"?><!DOCTYPE svg PUBLIC "-//W3C//DTD SVG 1.1//EN" "http://www.w3.org/Graphics/SVG/1.1/DTD/svg11.dtd"><svg t="1757859951573" class="icon" viewBox="0 0 1024 1024" version="1.1" xmlns="http://www.w3.org/2000/svg" p-id="1593" xmlns:xlink="http://www.w3.org/1999/xlink" width="200" height="200"><path d="M888.96 501.98l-232.528-20.212a163.988 163.988 0 0 0-53.972-75.052l28.724-109.384a80.56 80.56 0 1 0-36.192-18.56l-64.52 95.916a164.528 164.528 0 0 0-28.552-2.536 162.88 162.88 0 0 0-88.596 26.08L189.776 235.5l165.568 227.456a163.92 163.92 0 0 0-9.988 120.816l-102.6 86.084a68.82 68.82 0 1 0 21.576 31.88L385.08 650.48a163.7 163.7 0 0 0 201.56 25.48l220.52 137.464-164.176-194.524a162.636 162.636 0 0 0 18.328-45.784l228.94-52.56a9.428 9.428 0 0 0-1.292-18.576z" fill="#7DC7E7" p-id="1594"></path><path d="M437.848 473.48l-35.232 115.272a16.232 16.232 0 0 0 15.52 20.976 16.232 16.232 0 0 0 15.76-12.328l6.34-25.592h42.308l8.84 26.776a16.232 16.232 0 0 0 15.412 11.144h2.184a16.232 16.232 0 0 0 15.504-21.04l-35.744-115.276a16.232 16.232 0 0 0-15.504-11.424h-19.864a16.232 16.232 0 0 0-15.524 11.488z m7.212 73.34l9.888-31.348c2.412-8.548 4.6-19.728 6.796-28.492h0.44c2.192 8.764 4.82 19.728 7.452 28.492l9.208 31.348z" fill="#41767F" p-id="1595"></path><path d="M559.604 461.988m16.232 0l1.072 0q16.232 0 16.232 16.232l0 115.272q0 16.232-16.232 16.232l-1.072 0q-16.232 0-16.232-16.232l0-115.272q0-16.232 16.232-16.232Z" fill="#41767F" p-id="1596"></path><path d="M191.452 237.508m-95.092 0a95.092 95.092 0 1 0 190.184 0 95.092 95.092 0 1 0-190.184 0Z" fill="#7DC7E7" p-id="1597"></path><path d="M809.068878 812.926272m-90.17296 10.720552a90.808 90.808 0 1 0 180.34592-21.441104 90.808 90.808 0 1 0-180.34592 21.441104Z" fill="#7DC7E7" p-id="1598"></path><path d="M385.596 231.244m-40.708 0a40.708 40.708 0 1 0 81.416 0 40.708 40.708 0 1 0-81.416 0Z" fill="#41767F" p-id="1599"></path><path d="M122.56 475.488m-46.972 0a46.972 46.972 0 1 0 93.944 0 46.972 46.972 0 1 0-93.944 0Z" fill="#41767F" p-id="1600"></path><path d="M808.328 328.316m-43.84 0a43.84 43.84 0 1 0 87.68 0 43.84 43.84 0 1 0-87.68 0Z" fill="#41767F" p-id="1601"></path><path d="M416.912 799.064m-40.708 0a40.708 40.708 0 1 0 81.416 0 40.708 40.708 0 1 0-81.416 0Z" fill="#41767F" p-id="1602"></path><path d="M878.256 513.064m-59.632 0a59.632 59.632 0 1 0 119.264 0 59.632 59.632 0 1 0-119.264 0Z" fill="#7DC7E7" p-id="1603"></path><path d="M580.952 783.964m-35.484 0a35.484 35.484 0 1 0 70.968 0 35.484 35.484 0 1 0-70.968 0Z" fill="#41767F" p-id="1604"></path></svg>