<?xml version="1.0" standalone="no"?><!DOCTYPE svg PUBLIC "-//W3C//DTD SVG 1.1//EN" "http://www.w3.org/Graphics/SVG/1.1/DTD/svg11.dtd"><svg t="1757859721754" class="icon" viewBox="0 0 2313 1024" version="1.1" xmlns="http://www.w3.org/2000/svg" p-id="1625" xmlns:xlink="http://www.w3.org/1999/xlink" width="451.7578125" height="200"><path d="M2140.34963 0c91.401481 0.227556 166.115556 70.200889 172.67674 158.795852l0.455111 11.681185v682.742519c-0.227556 90.263704-71.414519 164.143407-161.374814 170.401185l-11.681186 0.379259H448.474074c-18.128593 0-35.65037-6.788741-49.076148-19.000889l-6.257778-6.599111L17.59763 559.559111a73.234963 73.234963 0 0 1-5.423408-88.064l5.423408-7.130074L393.140148 25.6a72.969481 72.969481 0 0 1 46.345482-24.993185l9.102222-0.568889h1691.761778zM379.221333 417.185185a113.777778 113.777778 0 1 0 0.075852 227.555556 113.777778 113.777778 0 0 0-0.075852-227.555556z" fill="#00C7A3" p-id="1626"></path></svg>