<svg xmlns="http://www.w3.org/2000/svg" width="16" height="16" id="touch">
  <path d="M7.412.004a5.485 5.485 0 0 0-3.49 1.318 5.505 5.505 0 0 0-1.193 6.92l.867-.498a4.496 4.496 0 0 1 .976-5.662 4.495 4.495 0 0 1 5.744-.088 4.495 4.495 0 0 1 1.15 5.629l.882.47a5.504 5.504 0 0 0-1.407-6.878A5.488 5.488 0 0 0 7.412.004zm.104 2c-.81 0-1.617.274-2.272.828a3.505 3.505 0 0 0-.734 4.48l.855-.517a2.495 2.495 0 0 1 .524-3.201 2.495 2.495 0 0 1 3.244.01 2.496 2.496 0 0 1 .504 3.205l.853.521a3.504 3.504 0 0 0-.707-4.484 3.493 3.493 0 0 0-2.267-.842zM7.51 4.006c-.823 0-1.5.677-1.5 1.5v3.498h-.49c-.823 0-1.493.68-1.5 1.496l-.012 1.059c0 2.428 2.021 4.437 4.5 4.437 2.478 0 4.5-2.006 4.498-4.414l-.004-2.586H9.01v-3.49c0-.823-.678-1.5-1.5-1.5zm0 1c.285 0 .5.214.5.5V9.5h.002v.496h3.992l.002 1.59c.002 1.846-1.558 3.412-3.498 3.412-1.94 0-3.5-1.564-3.5-3.437l.012-1.053a.49.49 0 0 1 .5-.504h.49v1.998h1V5.506c0-.286.214-.5.5-.5z" color="#000" font-family="sans-serif" font-weight="400" overflow="visible" style="line-height:normal;text-indent:0;text-align:start;text-decoration-line:none;text-decoration-style:solid;text-decoration-color:#000;text-transform:none;block-progression:tb;white-space:normal;isolation:auto;mix-blend-mode:normal;solid-color:#000;solid-opacity:1"></path>
</svg>
