<svg xmlns="http://www.w3.org/2000/svg" xml:space="preserve" style="enable-background:new 0 0 24 24" viewBox="0 0 24 24" id="avatar">
  <path d="m22.638 4.019-10.5-3a.514.514 0 0 0-.275 0l-10.5 3a.501.501 0 0 0-.001.962L4 5.735V9.5a.5.5 0 0 0 .11.313 38.163 38.163 0 0 0-.108 2.391C3.11 12.779 3 13.774 3 14.5c0 .958.889 3.104 2.15 3.452l.04.1C5.735 19.405 7.183 23 12 23s6.265-3.595 6.81-4.949l.04-.1c1.262-.348 2.15-2.494 2.15-3.452 0-.726-.11-1.721-1.002-2.296a38.197 38.197 0 0 0-.108-2.391.5.5 0 0 0 .11-.313V5.734l.747-.213a.496.496 0 0 1 .253.428v2.933l-.447.895a.497.497 0 0 0-.027.382l.5 1.5a.501.501 0 0 0 .95 0l.5-1.5a.502.502 0 0 0-.027-.382L22 8.882V5.949c0-.266-.074-.513-.196-.73l.833-.238a.501.501 0 0 0 .001-.962z" style="fill:#303c42"></path>
  <path d="m12 2.02 8.491 2.426L12.026 4a.501.501 0 0 0-.052.999l5.875.309L12 6.98 3.32 4.5 12 2.02z" style="fill:#546e7a"></path>
  <path d="m4.5 4.75 8.241-2.518L12 2.02 3.32 4.5l3.979 1.137z" style="opacity:.2;fill:#fff;enable-background:new"></path>
  <path d="M20 14.5c0 .764-.872 2.5-1.5 2.5a.499.499 0 0 0-.45.283c-.047.096-.102.23-.167.395C17.361 18.971 16.142 22 12 22s-5.361-3.029-5.883-4.322a5.869 5.869 0 0 0-.167-.395A.499.499 0 0 0 5.5 17C4.872 17 4 15.264 4 14.5c0-1.071.341-1.376.71-1.546A.5.5 0 0 0 5 12.5c0-.578.035-1.649.087-2.366C6.474 10.414 9.651 11 12 11s5.526-.586 6.913-.866c.052.717.087 1.788.087 2.366a.5.5 0 0 0 .29.454c.369.17.71.475.71 1.546z" style="fill:#fee8d7"></path>
  <path d="M19 9.095c-1.152.238-4.597.905-7 .905s-5.848-.667-7-.905V6.021l6.862 1.961a.539.539 0 0 0 .276-.001L19 6.02v3.075z" style="fill:#546e7a"></path>
  <path d="M19 9.095c-1.152.238-4.597.905-7 .905s-5.848-.667-7-.905V6.021l6.862 1.961a.539.539 0 0 0 .276-.001L19 6.02v3.075z" style="fill:#546e7a"></path>
  <linearGradient id="a" x1="8.5" x2="21.012" y1="21.48" y2="8.968" gradientTransform="matrix(1 0 0 -1 0 24)" gradientUnits="userSpaceOnUse">
    <stop offset="0" style="stop-color:#000;stop-opacity:.1"></stop>
    <stop offset="1" style="stop-color:#000;stop-opacity:0"></stop>
  </linearGradient>
  <path d="M19.29 12.954A.5.5 0 0 1 19 12.5c0-.578-.035-1.649-.087-2.366-1.387.28-4.564.866-6.913.866-.668 0-1.403-.05-2.145-.125l7.657 7.657c.156-.323.275-.618.37-.855.065-.165.12-.299.167-.395A.502.502 0 0 1 18.5 17c.628 0 1.5-1.736 1.5-2.5 0-1.071-.341-1.376-.71-1.546zM19 9.095V6.021l-6.862 1.961a.539.539 0 0 1-.276-.001L5 6.02l3.711 3.711C9.829 9.883 11.002 10 12 10c2.403 0 5.848-.667 7-.905z" style="fill:url(#a)"></path>
  <path d="M8.5 12a1.001 1.001 0 0 0 0 2 1.001 1.001 0 0 0 0-2zm.5 1zM15.5 12a1.001 1.001 0 0 0 0 2 1.001 1.001 0 0 0 0-2zm.5 1z" style="fill:#303c42"></path>
  <linearGradient id="b" x1=".264" x2="20.828" y1="18.033" y2="8.444" gradientTransform="matrix(1 0 0 -1 0 24)" gradientUnits="userSpaceOnUse">
    <stop offset="0" style="stop-color:#fff;stop-opacity:.2"></stop>
    <stop offset="1" style="stop-color:#fff;stop-opacity:0"></stop>
  </linearGradient>
  <path d="m22.638 4.019-10.5-3a.514.514 0 0 0-.275 0l-10.5 3a.501.501 0 0 0-.001.962L4 5.735V9.5a.5.5 0 0 0 .11.313 38.163 38.163 0 0 0-.108 2.391C3.11 12.779 3 13.774 3 14.5c0 .958.889 3.104 2.15 3.452l.04.1C5.735 19.405 7.183 23 12 23s6.265-3.595 6.81-4.949l.04-.1c1.262-.348 2.15-2.494 2.15-3.452 0-.726-.11-1.721-1.002-2.296a38.197 38.197 0 0 0-.108-2.391.5.5 0 0 0 .11-.313V5.734l.747-.213a.496.496 0 0 1 .253.428v2.933l-.447.895a.497.497 0 0 0-.027.382l.5 1.5a.501.501 0 0 0 .95 0l.5-1.5a.502.502 0 0 0-.027-.382L22 8.882V5.949c0-.266-.074-.513-.196-.73l.833-.238a.501.501 0 0 0 .001-.962z" style="fill:url(#b)"></path>
</svg>
