<svg xmlns="http://www.w3.org/2000/svg" viewBox="0 0 24 24" id="avatar">
  <path fill="#303c42" d="M24 11.5c0-1.607-.874-3.176-2.007-3.966.001-.012.007-.022.007-.034C22 4.912 19.408 1 15.5 1c-2.051 0-3.033.228-3.5.429C11.533 1.228 10.551 1 8.5 1 4.592 1 2 4.912 2 7.5c0 .012.006.022.007.034C.874 8.324 0 9.893 0 11.5c0 1.169.312 2.016.62 2.586C.28 14.614 0 15.378 0 16.5c0 2.286 1.556 3.279 2.379 3.485a.5.5 0 0 0 .481-.138c.73 1.144 1.566 1.652 2.641 1.652.51 0 1.048-.137 1.577-.386C8.11 22.145 9.653 23 12 23s3.89-.855 4.923-1.886c.529.25 1.068.386 1.577.386 1.074 0 1.911-.509 2.641-1.652a.507.507 0 0 0 .481.138c.822-.207 2.378-1.2 2.378-3.486 0-1.122-.28-1.886-.62-2.414.308-.57.62-1.417.62-2.586z"></path>
  <path fill="#fee8d7" d="M12 22c-4.144 0-5.362-3.029-5.883-4.323a7.402 7.402 0 0 0-.167-.394A.499.499 0 0 0 5.5 17C4.872 17 4 15.265 4 14.5c0-1.071.341-1.376.709-1.546a.501.501 0 0 0 .287-.392c.113-.898.552-3.139 1.348-4.214.715 1.186 1.937 1.605 1.998 1.626A.498.498 0 0 0 9 9.5c0-.748.112-1.91.387-2.761.705 1.17 2.145 2.063 2.356 2.189a.496.496 0 0 0 .515 0c.211-.126 1.651-1.02 2.356-2.189.274.851.386 2.013.386 2.761a.498.498 0 0 0 .658.474c.061-.021 1.283-.44 1.998-1.626.796 1.075 1.235 3.315 1.348 4.214a.5.5 0 0 0 .287.392c.369.17.709.475.709 1.546 0 .765-.872 2.5-1.5 2.5a.502.502 0 0 0-.451.283 7.06 7.06 0 0 0-.167.394C17.362 18.971 16.144 22 12 22z"></path>
  <linearGradient id="a" x1="12.007" x2="16.301" y1="7.973" y2="3.679" gradientTransform="matrix(1 0 0 -1 0 24)" gradientUnits="userSpaceOnUse">
    <stop offset="0" stop-opacity=".1"></stop>
    <stop offset="1" stop-opacity="0"></stop>
  </linearGradient>
  <path fill="url(#a)" d="m13.639 14.857-.001.001c.227.324.362.717.362 1.142 0 1.103-.897 2-2 2a1.987 1.987 0 0 1-1.395-.572l4.049 4.049c1.491-.666 2.308-1.844 2.793-2.813l-3.808-3.807z"></path>
  <path fill="#7cb342" d="M22 18.698V18a.501.501 0 0 0-.964-.185c-.946 2.366-1.813 2.686-2.536 2.686-.281 0-.582-.078-.887-.192.632-.863.986-1.731 1.198-2.258l.04-.098c1.262-.349 2.15-2.494 2.15-3.452 0-.736-.114-1.748-1.04-2.319-.146-.983-.721-4.122-2.183-5.097a.502.502 0 0 0-.751.257c-.218.654-.675 1.087-1.058 1.35-.074-1.033-.317-2.748-1.114-3.545A.502.502 0 0 0 14 5.5c0 .869-1.289 1.923-2 2.405-.711-.482-2-1.536-2-2.405a.5.5 0 0 0-.854-.354c-.798.798-1.041 2.517-1.115 3.549-.382-.261-.837-.692-1.058-1.354a.5.5 0 0 0-.751-.257c-1.462.975-2.037 4.113-2.183 5.097C3.114 12.752 3 13.764 3 14.5c0 .958.888 3.104 2.15 3.452l.04.098c.212.527.565 1.395 1.198 2.258-.306.114-.607.192-.888.192-.723 0-1.589-.319-2.536-2.686a.502.502 0 0 0-.559-.306A.503.503 0 0 0 2 18v.697c-.458-.333-1-.984-1-2.197 0-2.058 1.103-2.505 1.165-2.528a.5.5 0 0 0-.322-.946 2.31 2.31 0 0 0-.491.277A4.5 4.5 0 0 1 1 11.5C1 9.799 2.285 8 3.5 8a.5.5 0 0 0 0-1c-.159 0-.316.038-.473.072C3.293 4.886 5.509 2 8.5 2c2.609 0 3.169.386 3.146.354.196.196.473.23.667.035.024-.017.604-.389 3.187-.389 2.991 0 5.207 2.886 5.473 5.072C20.816 7.038 20.659 7 20.5 7a.5.5 0 0 0 0 1c1.215 0 2.5 1.799 2.5 3.5a4.51 4.51 0 0 1-.351 1.802 2.31 2.31 0 0 0-.491-.277.494.494 0 0 0-.625.31.504.504 0 0 0 .302.637c.047.017 1.165.457 1.165 2.528 0 1.215-.542 1.866-1 2.198z"></path>
  <path fill="#303c42" d="M14.829 17.828c-1.511 1.512-4.146 1.512-5.657 0a.5.5 0 0 0-.707.707C9.409 19.479 10.665 20 12 20s2.591-.521 3.536-1.465a.5.5 0 0 0-.707-.707z"></path>
  <circle cx="8.5" cy="13" r="1" fill="#303c42"></circle>
  <circle cx="15.5" cy="13" r="1" fill="#303c42"></circle>
  <linearGradient id="b" x1="9.835" x2="19.98" y1="17.745" y2="7.601" gradientTransform="matrix(1 0 0 -1 0 24)" gradientUnits="userSpaceOnUse">
    <stop offset="0" stop-opacity=".1"></stop>
    <stop offset="1" stop-opacity="0"></stop>
  </linearGradient>
  <path fill="url(#b)" d="M17.116 19.263c.371-.602.604-1.18.767-1.586.066-.164.121-.298.167-.394A.499.499 0 0 1 18.5 17c.628 0 1.5-1.735 1.5-2.5 0-1.071-.341-1.376-.709-1.546a.501.501 0 0 1-.287-.392c-.113-.898-.552-3.139-1.348-4.214-.715 1.186-1.937 1.605-1.998 1.626A.498.498 0 0 1 15 9.5c0-.748-.112-1.91-.387-2.761-.705 1.17-2.145 2.063-2.356 2.189a.496.496 0 0 1-.515 0c-.211-.126-1.651-1.02-2.356-2.189C9.112 7.59 9 8.752 9 9.5a.498.498 0 0 1-.658.474 4.11 4.11 0 0 1-1.37-.856l10.144 10.145z"></path>
  <linearGradient id="c" x1="6.893" x2="6.91" y1="14.961" y2="14.943" gradientTransform="matrix(1 0 0 -1 0 24)" gradientUnits="userSpaceOnUse">
    <stop offset="0" stop-opacity=".1"></stop>
    <stop offset="1" stop-opacity="0"></stop>
  </linearGradient>
  <path fill="url(#c)" d="m6.893 9.039.001.002.016.016-.017-.018z"></path>
  <circle cx="12" cy="16" r="2" fill="#d32f2f"></circle>
  <circle cx="11.28" cy="14.968" r=".468" fill="#fff" opacity=".2"></circle>
  <linearGradient id="d" x1="1.622" x2="24.022" y1="17.038" y2="6.593" gradientTransform="matrix(1 0 0 -1 0 24)" gradientUnits="userSpaceOnUse">
    <stop offset="0" stop-color="#fff" stop-opacity=".2"></stop>
    <stop offset="1" stop-color="#fff" stop-opacity="0"></stop>
  </linearGradient>
  <path fill="url(#d)" d="M24 11.5c0-1.607-.874-3.176-2.007-3.966.001-.012.007-.022.007-.034C22 4.912 19.408 1 15.5 1c-2.051 0-3.033.228-3.5.429C11.533 1.228 10.551 1 8.5 1 4.592 1 2 4.912 2 7.5c0 .012.006.022.007.034C.874 8.324 0 9.893 0 11.5c0 1.169.312 2.016.62 2.586C.28 14.614 0 15.378 0 16.5c0 2.286 1.556 3.279 2.379 3.485a.5.5 0 0 0 .481-.138c.73 1.144 1.566 1.652 2.641 1.652.51 0 1.048-.137 1.577-.386C8.11 22.145 9.653 23 12 23s3.89-.855 4.923-1.886c.529.25 1.068.386 1.577.386 1.074 0 1.911-.509 2.641-1.652a.507.507 0 0 0 .481.138c.822-.207 2.378-1.2 2.378-3.486 0-1.122-.28-1.886-.62-2.414.308-.57.62-1.417.62-2.586z"></path>
</svg>
