<svg xmlns="http://www.w3.org/2000/svg" viewBox="0 0 512 512" id="goddess-laxmi">
  <ellipse cx="467.297" cy="118.749" fill="#fe93d3" rx="31.592" ry="13.698" transform="rotate(-71.867 467.297 118.749)"></ellipse>
  <path fill="#fe93d3" d="M447.64 148.52c-.04.08-.08.17-.13.25a43.269 43.269 0 0 1-19.66-60.04 43.446 43.446 0 0 1 11.78 8.09Z"></path>
  <ellipse cx="463.786" cy="150.835" fill="#22b37f" rx="9.214" ry="21.252" transform="rotate(-47.955 463.786 150.835)"></ellipse>
  <ellipse cx="440.094" cy="150.835" fill="#22b37f" rx="21.252" ry="9.214" transform="rotate(-42.045 440.094 150.835)"></ellipse>
  <ellipse cx="451.94" cy="150.835" fill="#09a76d" rx="9.214" ry="21.252"></ellipse>
  <ellipse cx="473.22" cy="129.583" fill="#fe73c5" rx="31.592" ry="13.698" transform="rotate(-48.042 473.22 129.583)"></ellipse>
  <ellipse cx="430.66" cy="129.583" fill="#fe73c5" rx="13.698" ry="31.592" transform="rotate(-41.958 430.66 129.583)"></ellipse>
  <ellipse cx="451.94" cy="116.025" fill="#fe4fb7" rx="16.065" ry="37.051"></ellipse>
  <path fill="#fed2a4" d="m410.672 443.639 72.294-70.687a30 30 0 0 0 8.607-26.448L474 242.486h-28.944l.126 87.277a10 10 0 0 1-3.009 7.164l-49.775 48.67Z"></path>
  <path fill="#ffbd86" d="M491.573 346.504 474 242.486h-14l17.573 104.018a30 30 0 0 1-8.607 26.448l-61.59 60.22 3.296 10.467 72.294-70.687a30 30 0 0 0 8.607-26.448Z"></path>
  <path fill="#fee903" d="m414.507 363.978 26.536 49.965 14.111-13.798-26.538-49.962-14.109 13.795z"></path>
  <path fill="#22b37f" d="m455.15 400.15-14.11 13.79-30.37 29.7-18.27-58.04 22.11-21.62 14.11-13.8 26.53 49.97z"></path>
  <path fill="#fd4755" d="m455.15 400.15-14.11 13.79-26.53-49.96 14.11-13.8 26.53 49.97z"></path>
  <path fill="#fb2b3a" d="m450.366 391.139-14.109 13.794 4.783 9.007 12.809-12.519 1.301-1.271-4.784-9.011z"></path>
  <path fill="#fee903" d="M479.4 276.041h-34.38l.073 25.194h38.642l-4.335-25.194z"></path>
  <path fill="#fac600" d="M479.4 276.041h-13.731l4.257 25.194h13.809l-4.335-25.194z"></path>
  <path fill="#fed2a4" d="m452.329 249.303-8.283-2.577a15 15 0 0 1-10.544-14.323v-13.916a10 10 0 0 1 10-10h1.84a7.894 7.894 0 0 1 7.894-7.893H470.3a10 10 0 0 1 10 10v22.392a15 15 0 0 1-9.814 14.075l-1.494.55Z"></path>
  <path fill="#ffbd86" d="M472.937 200.957a9.986 9.986 0 0 1 .363 2.637v22.392a15 15 0 0 1-9.814 14.075l-1.494.55-8.033.816a42.491 42.491 0 0 1-16.914-1.701 15.007 15.007 0 0 1-2.046-.813 14.985 14.985 0 0 0 9.046 7.813 42.491 42.491 0 0 0 16.914 1.7l8.033-.815 1.494-.55a15 15 0 0 0 9.814-14.075v-22.392a9.996 9.996 0 0 0-7.363-9.637Z"></path>
  <path fill="#fed2a4" d="M447.663 208.487h-4.161a10 10 0 0 0-10 10v13.118"></path>
  <path fill="#ffbd86" d="M480.3 223.89h-23.496a6 6 0 0 1-5.746-4.272l-3.395-11.298a6 6 0 0 1 5.746-7.726H470.3a10 10 0 0 1 10 10Z"></path>
  <ellipse cx="44.703" cy="118.749" fill="#fe93d3" rx="13.698" ry="31.592" transform="rotate(-18.133 44.703 118.749)"></ellipse>
  <ellipse cx="74.319" cy="118.749" fill="#fe93d3" rx="31.592" ry="13.698" transform="rotate(-71.867 74.319 118.749)"></ellipse>
  <ellipse cx="48.214" cy="150.835" fill="#22b37f" rx="21.252" ry="9.214" transform="rotate(-42.045 48.214 150.835)"></ellipse>
  <ellipse cx="71.906" cy="150.835" fill="#22b37f" rx="9.214" ry="21.252" transform="rotate(-47.955 71.906 150.835)"></ellipse>
  <ellipse cx="60.06" cy="150.835" fill="#09a76d" rx="9.214" ry="21.252"></ellipse>
  <ellipse cx="38.78" cy="129.583" fill="#fe73c5" rx="13.698" ry="31.592" transform="rotate(-41.958 38.78 129.583)"></ellipse>
  <ellipse cx="81.34" cy="129.583" fill="#fe73c5" rx="31.592" ry="13.698" transform="rotate(-48.042 81.34 129.583)"></ellipse>
  <ellipse cx="60.06" cy="116.025" fill="#fe4fb7" rx="16.065" ry="37.051"></ellipse>
  <path fill="#fed2a4" d="m101.328 443.639-72.294-70.687a30 30 0 0 1-8.607-26.448L38 242.486h28.944l-.126 87.277a10 10 0 0 0 3.009 7.164l49.775 48.67Z"></path>
  <path fill="#ffbd86" d="M69.827 336.927a10 10 0 0 1-3.009-7.164l.126-87.277h-14l-.126 87.277a10 10 0 0 0 3.009 7.164l49.775 48.67-14.979 47.575 10.705 10.467 18.274-58.043Z"></path>
  <path fill="#fee903" d="m70.957 413.943 26.536-49.965-13.278-12.982-.872-.736-26.497 49.885 14.111 13.798z"></path>
  <path fill="#22b37f" d="m119.6 385.6-18.27 58.04-30.37-29.7-14.11-13.79 26.49-49.89.87.73.01.01 13.27 12.98 22.11 21.62z"></path>
  <path fill="#02905d" d="m119.6 385.6-22.11-21.62-12.612-12.337-.671-.656-.867-.727-4.742 8.932 18.565 18.152a6.012 6.012 0 0 1 .413 8.124 65.152 65.152 0 0 0-14.784 40.043l17.16 16.782 1.376 1.345.002.002 12.57-39.935.087-.273Z"></path>
  <path fill="#fd4755" d="m97.49 363.98-26.53 49.96-14.11-13.79 26.49-49.89.87.73.01.01 13.27 12.98z"></path>
  <path fill="#fb2b3a" d="m92.707 372.987 4.783-9.007-12.612-12.337-.671-.656-.867-.727-4.742 8.932 14.109 13.795z"></path>
  <path fill="#fee903" d="M28.075 301.235h38.784l.037-25.194H32.331l-4.256 25.194z"></path>
  <path fill="#fac600" d="M52.859 301.235h14l.037-25.194h-14l-.037 25.194z"></path>
  <path fill="#fed2a4" d="m59.671 249.303 8.283-2.577a15 15 0 0 0 10.544-14.323v-13.916a10 10 0 0 0-10-10h-1.84a7.894 7.894 0 0 0-7.894-7.893H41.7a10 10 0 0 0-10 10v22.392a15 15 0 0 0 9.814 14.075l1.494.55Z"></path>
  <path fill="#ffbd86" d="M68.499 208.487h-1.841a7.894 7.894 0 0 0-7.894-7.893h-14a7.894 7.894 0 0 1 7.894 7.893h1.84a10 10 0 0 1 10 10v13.916a15 15 0 0 1-10.543 14.322l-4.84 1.506 10.556 1.072 8.283-2.578A15 15 0 0 0 78.5 232.403v-13.916a10 10 0 0 0-10-10Z"></path>
  <path fill="#ffbd86" d="M31.7 223.89h23.496a6 6 0 0 0 5.746-4.272l3.395-11.298a6 6 0 0 0-5.746-7.726H41.7a10 10 0 0 0-10 10Z"></path>
  <path fill="#3c3b42" d="M381.211 380.5h-251l63-173h125l63 173z"></path>
  <path fill="#2c2c2e" d="m371.083 352.69-53.744-16.032a23.793 23.793 0 0 1-9.04-5.04 5.986 5.986 0 0 1 .262-9.08 83.183 83.183 0 0 0 30.23-58.522l-20.58-56.516h-125l-20.716 56.885a80.453 80.453 0 0 0 29.58 58.75 6.015 6.015 0 0 1-.036 9.387 23.755 23.755 0 0 1-7.956 4.136l-53.745 16.032-10.127 27.81h251Z"></path>
  <path fill="#2c2c2e" d="M318.211 207.5h-14l63 173h14l-63-173z"></path>
  <circle cx="325.711" cy="268.981" r="18.255" fill="#fee903"></circle>
  <path fill="#fac600" d="M334.63 253.062a18.243 18.243 0 0 1-24.838 24.838 18.25 18.25 0 1 0 24.838-24.838Z"></path>
  <circle cx="185.711" cy="268.981" r="18.255" fill="#fee903"></circle>
  <path fill="#ffbd86" d="M342.347 244.342s.18-6.276.48-14.185a13.387 13.387 0 0 0-13.372-13.895h-19.627l7 40.238h12.194a13.38 13.38 0 0 0 13.325-12.158zm-147.754-28.08H181.78a13.133 13.133 0 0 0-13.119 13.632c.306 8.032.49 14.448.49 14.448l.011.121a13.17 13.17 0 0 0 13.083 12.037h12.348z"></path>
  <path fill="#fee903" d="M272.15 25.69a113.121 113.121 0 1 0 96.67 111.92 112.915 112.915 0 0 0-96.67-111.92Zm-16.44 190.04a78.115 78.115 0 0 1 0-156.23 77.387 77.387 0 0 1 29.48 5.79 78.108 78.108 0 0 1-29.48 150.44Z"></path>
  <path fill="#fac600" d="M212.26 72.74a77.56 77.56 0 0 1 36.44-12.915 78.631 78.631 0 0 0-6.99-.325 78.115 78.115 0 0 0 0 156.23c2.36 0 4.692-.124 7-.33a78.079 78.079 0 0 1-36.45-142.66Z"></path>
  <path fill="#fac600" d="M272.15 25.69a112.915 112.915 0 0 0-16.44-1.19c-2.354 0-4.688.086-7.006.228 3.183.194 6.337.505 9.446.962a113.119 113.119 0 0 1-9.44 224.818c2.316.141 4.648.222 7 .222a113.121 113.121 0 0 0 16.44-225.04Z"></path>
  <path fill="#fac600" d="M255.71 215.726a78.201 78.201 0 0 1-78.113-78.113q0-2.075.11-4.124a79.362 79.362 0 0 0-10.367 50.271l3.628 28.765a112.83 112.83 0 0 0 84.743 38.201Z"></path>
  <path fill="#fff" d="M255.922 238.536c-.038 0-.076 0-.114-.002a3.126 3.126 0 0 1-.098.002h-.1a3.5 3.5 0 1 1 0-7h.1c.039 0 .077 0 .115.002l.047-.001.15-.001a3.5 3.5 0 0 1 0 7h-.048zm-21.137-2.263a3.513 3.513 0 0 1-.768-.085l.765-3.416-.824 3.403a3.5 3.5 0 1 1 1.452-6.848l.136.03a3.5 3.5 0 0 1-.76 6.916zm42.059-.045a3.5 3.5 0 0 1-.773-6.914l.109-.024a3.5 3.5 0 0 1 1.529 6.83l-.086.02a3.528 3.528 0 0 1-.78.088zm-62.016-6.689a3.489 3.489 0 0 1-1.48-.33l-.05-.023a3.5 3.5 0 0 1 2.882-6.38l.133.062a3.5 3.5 0 0 1-1.485 6.671zm81.953-.088a3.5 3.5 0 0 1-1.462-6.681 3.542 3.542 0 0 1 4.681 1.688 3.458 3.458 0 0 1-1.647 4.62l-.114.053a3.484 3.484 0 0 1-1.458.32zM196.76 218.65a3.418 3.418 0 0 1-2.075-.703l-.087-.066a3.5 3.5 0 1 1 4.248-5.564 3.515 3.515 0 0 1-2.086 6.333zm118.022-.11a3.5 3.5 0 0 1-2.151-6.264l.111-.085a3.5 3.5 0 1 1 4.234 5.575l-2.117-2.787 2.07 2.823a3.486 3.486 0 0 1-2.147.737zM245.03 44.271a3.5 3.5 0 0 1-.354-6.982l.358 3.482-.31-3.487a3.5 3.5 0 0 1 .819 6.952l-.15.016a3.495 3.495 0 0 1-.363.019zm21.158-.022a3.548 3.548 0 0 1-3.533-3.89 3.456 3.456 0 0 1 3.788-3.103l.15.016a3.5 3.5 0 0 1-.405 6.977z"></path>
  <path fill="#fee903" d="M323.71 234.5h-136l-7.581-60.112a67.974 67.974 0 0 1 40.755-71.023L255.711 88.5l34.826 14.865a67.974 67.974 0 0 1 40.755 71.023Z"></path>
  <path fill="#fac600" d="M290.537 103.365 255.71 88.5l-7 2.988 27.826 11.877a67.974 67.974 0 0 1 40.755 71.023l-7.581 60.112h14l7.581-60.112a67.974 67.974 0 0 0-40.755-71.023Z"></path>
  <path fill="#22b37f" d="M414.694 502v-76.45a60 60 0 0 0-42.85-57.497l-64.564-19.259a20 20 0 0 1-14.283-19.165v-19.603h-74.573v19.603a20 20 0 0 1-14.283 19.165l-64.565 19.259a60 60 0 0 0-42.849 57.497V502a10 10 0 0 0 10 10h297.967a10 10 0 0 0 10-10Z"></path>
  <circle cx="256" cy="407.716" r="19.811" fill="#02905d"></circle>
  <path fill="#02905d" d="M255.973 400.913a107.613 107.613 0 0 0 80.675-36.359l-29.368-8.76a19.988 19.988 0 0 1-3.411-1.382 77.762 77.762 0 0 1-96.005-.168 19.971 19.971 0 0 1-3.723 1.55l-28.953 8.636a107.614 107.614 0 0 0 80.785 36.483Z"></path>
  <path fill="#02905d" d="m339.734 359.306-.277-1.124-2.83-1.215a30 30 0 0 0-37.682 12.332L215.115 512h34.398l2.041-3.68zm110.632 31.833L431.76 409.33a3.595 3.595 0 0 1-5.953-1.487 65.285 65.285 0 0 0-22.644-32.768L392.4 385.6l18.27 58.04.002-.002 3.596-3.516 14.373-14.057 12.399-12.125 12.81-12.519 1.3-1.271z"></path>
  <path fill="#fed2a4" d="M303.86 347.42a77.78 77.78 0 0 1-95.98-.16 20.005 20.005 0 0 0 10.54-17.63v-19.6H293v19.6a19.994 19.994 0 0 0 10.86 17.79Z"></path>
  <path fill="#ffbd86" fill-rule="evenodd" d="M218.42 310.03v15a66.354 66.354 0 0 0 42.588 15.327h1.703a67.8 67.8 0 0 0 30.602-7.266 20.003 20.003 0 0 1-.313-3.461v-19.6Z"></path>
  <path fill="#fed2a4" fill-rule="evenodd" d="M255.711 326.357h-1.703a66.147 66.147 0 0 1-66.416-66.076V232.99a40.21 40.21 0 0 1 16.836-32.718l.493-.352a48.275 48.275 0 0 1 34.502-8.56l16.288 2.193 16.287-2.193a48.274 48.274 0 0 1 34.502 8.56l.492.352a40.21 40.21 0 0 1 16.836 32.717l.001 25.246a68.121 68.121 0 0 1-68.118 68.123Z"></path>
  <path fill="#ffbd86" fill-rule="evenodd" d="M187.593 246.989a40.21 40.21 0 0 1 16.835-32.718l.493-.352a48.275 48.275 0 0 1 34.502-8.56l16.288 2.193 16.287-2.193a48.274 48.274 0 0 1 34.502 8.56l.492.352a40.21 40.21 0 0 1 16.836 32.717v11.26l.001-.014v-25.246a40.21 40.21 0 0 0-16.837-32.717l-.492-.352a48.274 48.274 0 0 0-34.502-8.56l-16.287 2.193-16.288-2.193a48.275 48.275 0 0 0-34.502 8.56l-.493.352a40.21 40.21 0 0 0-16.835 32.718V260.29v-13.302Z"></path>
  <path fill="#fed2a4" d="M96.727 502v-39.645h55.915V512h-45.915a10 10 0 0 1-10-10Z"></path>
  <path fill="#fd4755" d="M96.727 462.355h55.915v21H96.727z"></path>
  <path fill="#fac600" d="M285.19 65.29a77.927 77.927 0 0 0-72.93 7.45 14.152 14.152 0 0 1-.5-3.76 14.51 14.51 0 0 1 14.51-14.52h44.88a14.504 14.504 0 0 1 14.04 10.83Z"></path>
  <path fill="#fee903" d="M233.272 54.46h44.877a14.516 14.516 0 0 1 14.516 14.515 14.516 14.516 0 0 1-14.516 14.516h-44.877a14.516 14.516 0 0 1-14.516-14.516 14.516 14.516 0 0 1 14.516-14.516Z"></path>
  <path fill="#fac600" d="M278.15 54.46h-1.6a14.425 14.425 0 0 1 2.115 7.515 14.516 14.516 0 0 1-14.516 14.516H220.87a14.492 14.492 0 0 0 12.402 7h44.877a14.516 14.516 0 0 0 14.516-14.516A14.516 14.516 0 0 0 278.15 54.46Z"></path>
  <path fill="#fee903" d="M224.595 83.491h62.232a14.516 14.516 0 0 1 14.515 14.516 14.516 14.516 0 0 1-14.515 14.516h-62.232a14.516 14.516 0 0 1-14.516-14.516 14.516 14.516 0 0 1 14.516-14.516Z"></path>
  <path fill="#fac600" d="M286.827 83.491h-1.6a14.426 14.426 0 0 1 2.115 7.516 14.516 14.516 0 0 1-14.515 14.516h-60.634a14.492 14.492 0 0 0 12.402 7h62.232a14.516 14.516 0 0 0 14.515-14.516 14.516 14.516 0 0 0-14.515-14.516zM274.34 36.34a27.178 27.178 0 0 1-3.28 12.93l-2.81 5.19h-39.08l-2.81-5.19a27.124 27.124 0 0 1-2.26-20.29 113.892 113.892 0 0 1 48.05-3.29 27.003 27.003 0 0 1 2.19 10.65z"></path>
  <path fill="#fee903" d="M275.25 54.46h-39.08l-2.811-5.188a27.132 27.132 0 0 1 0-25.857 27.132 27.132 0 0 1 7.523-8.738L255.71 3.5l14.829 11.177a27.132 27.132 0 0 1 7.522 8.738 27.132 27.132 0 0 1 0 25.857Z"></path>
  <path fill="#fac600" d="M278.062 23.415a27.131 27.131 0 0 0-7.522-8.738L255.71 3.5l-2.356 1.776 3.186 2.401a27.132 27.132 0 0 1 7.522 34.595 9.908 9.908 0 0 1-8.71 5.187H232.47c.275.612.566 1.218.889 1.813l2.811 5.187h39.081l2.811-5.187a27.132 27.132 0 0 0 0-25.857Z"></path>
  <circle cx="256" cy="32.966" r="7.625" fill="#fd4755"></circle>
  <path fill="#fb2b3a" d="M257.59 25.51a7.62 7.62 0 0 1-8.01 11.56 7.622 7.622 0 1 0 8.01-11.56Z"></path>
  <circle cx="213.711" cy="164.006" r="7" fill="#0067c5"></circle>
  <circle cx="297.711" cy="164.006" r="7" fill="#0067c5"></circle>
  <path fill="#0055a3" d="M297.71 157.006c-.054 0-.107.007-.16.008a6.993 6.993 0 0 1-5.21 11.478 7 7 0 1 0 5.37-11.486zm-84 0c-.054 0-.107.007-.16.008a6.993 6.993 0 0 1-5.21 11.478 7 7 0 1 0 5.37-11.486z"></path>
  <circle cx="255.711" cy="156.815" r="12.474" fill="#fd4755"></circle>
  <path fill="#fb2b3a" d="M260.302 145.224a12.458 12.458 0 0 1-16.182 16.182 12.47 12.47 0 1 0 16.182-16.182Z"></path>
  <path fill="#02905d" d="m211.523 470.516 44.187 24.448 44.188-24.448a80.354 80.354 0 0 0 41.442-70.29V374.11l.319-1.061-34.379-10.255a19.998 19.998 0 0 1-2.197-.815l-.095 1.287v36.96A43.979 43.979 0 0 1 282.3 438.71l-26.59 14.71-26.59-14.71a43.98 43.98 0 0 1-22.687-38.482v-36.96l-.164-1.258a20.007 20.007 0 0 1-2.128.785l-34.158 10.189.098 1.127v26.116a80.354 80.354 0 0 0 41.442 70.29Z"></path>
  <path fill="#fee903" d="m211.523 456.516 44.187 24.448 44.188-24.448a80.354 80.354 0 0 0 41.442-70.29V360.11l.319-1.061-34.379-10.255a19.998 19.998 0 0 1-2.197-.815l-.095 1.287v36.96A43.979 43.979 0 0 1 282.3 424.71l-26.59 14.71-26.59-14.71a43.98 43.98 0 0 1-22.687-38.482v-36.96l-.164-1.258a20.007 20.007 0 0 1-2.128.785l-34.158 10.189.098 1.127v26.116a80.354 80.354 0 0 0 41.442 70.29Z"></path>
  <path fill="#fac600" d="M304.988 354.927v31.3q0 1.471-.1 2.927a108.549 108.549 0 0 0 31.76-24.6l-29.368-8.76a19.268 19.268 0 0 1-2.292-.867zm-98.555 31.3v-31.3a19.072 19.072 0 0 1-2.292.867l-34.158 3.189a119.574 119.574 0 0 0 36.54 29.898 43.97 43.97 0 0 1-.09-2.654z"></path>
  <path fill="#fac600" d="M304.988 361.993v24.234a43.98 43.98 0 0 1-22.688 38.482l-23.565 13.037-19.903 33.88 16.878 9.338 17.89-9.898 66.134-111.76-.221-.897-12.774-3.81a30.056 30.056 0 0 0-21.751 7.394Z"></path>
  <path fill="#fed402" d="M255.973 393.913a107.613 107.613 0 0 0 80.675-36.359l-29.368-8.76a19.988 19.988 0 0 1-3.411-1.382 77.762 77.762 0 0 1-96.005-.168 19.971 19.971 0 0 1-3.723 1.55l-28.953 8.636a107.614 107.614 0 0 0 80.785 36.483Z"></path>
  <path fill="#fee903" d="M255.973 393.913a107.613 107.613 0 0 0 80.675-36.359l-29.368-8.76a19.988 19.988 0 0 1-3.411-1.382 77.762 77.762 0 0 1-96.005-.168 19.971 19.971 0 0 1-3.723 1.55l-28.953 8.636a107.614 107.614 0 0 0 80.785 36.483Z"></path>
  <path fill="#fac600" d="m336.648 357.554-9.909-2.955a30.001 30.001 0 0 0-27.794 14.7l-11.749 19.999a108.118 108.118 0 0 0 49.452-31.744Z"></path>
  <path fill="#fed402" d="m207.86 347.24.02.02a19.022 19.022 0 0 1-2.77 1.21 20.007 20.007 0 0 0 2.75-1.23zm97.67.94c-.57-.23-1.13-.48-1.67-.76l.01-.01c.54.28 1.09.54 1.66.77z"></path>
  <circle cx="255.711" cy="407.912" r="14" fill="#fee903"></circle>
  <path fill="#f4d902" d="M261.464 395.16a13.982 13.982 0 0 1-18.506 18.505 13.994 13.994 0 1 0 18.506-18.506Z"></path>
  <path fill="#fd4755" d="M405.254 512a10 10 0 0 0 10-9.998l.019-77.722a60 60 0 0 0-36.323-55.15l-28.322-12.163c-13.874-5.958-23.015-.677-30.683 12.332L236.115 512Z"></path>
  <path fill="#fb2b3a" d="m378.95 369.13-28.322-12.163c-6.685-2.87-12.269-3.126-17.12-1.17a35.52 35.52 0 0 1 3.12 1.17l28.322 12.164a60 60 0 0 1 36.323 55.149l-.022 87.72h4.003a10 10 0 0 0 10-9.998l.019-77.722a60 60 0 0 0-36.323-55.15Z"></path>
  <path fill="#fee903" d="m353.734 359.306-.277-1.124-2.83-1.215a30 30 0 0 0-37.682 12.332L229.115 512h34.398l2.041-3.68zm7.856 33.15a5.932 5.932 0 0 0 2.418-2.938 3.01 3.01 0 0 1 5.67.634 13.424 13.424 0 0 1 .22 4.139c-.036.361-1.032 8.88-7.482 10.912-2.67.842-7.436.937-9.665-2.494-1.83-2.817-1.296-7.003.852-8.79 2.35-1.952 5.183.17 7.987-1.463zm-24.736 59.343a5.932 5.932 0 0 0-2.418 2.937 3.01 3.01 0 0 1-5.67-.634 13.424 13.424 0 0 1-.22-4.138c.036-.361 1.032-8.88 7.482-10.913 2.67-.841 7.436-.937 9.665 2.495 1.83 2.817 1.296 7.003-.852 8.789-2.35 1.953-5.183-.17-7.987 1.464zm-28 46.377a5.932 5.932 0 0 0-2.418 2.937 3.01 3.01 0 0 1-5.67-.634 13.424 13.424 0 0 1-.22-4.139c.036-.36 1.032-8.88 7.482-10.912 2.67-.841 7.436-.937 9.665 2.494 1.83 2.818 1.296 7.004-.852 8.79-2.35 1.953-5.183-.17-7.987 1.464zm66.88-65.213a5.932 5.932 0 0 0 2.418-2.937 3.01 3.01 0 0 1 5.67.634 13.424 13.424 0 0 1 .22 4.138c-.037.361-1.032 8.88-7.483 10.913-2.67.841-7.435.937-9.665-2.494-1.83-2.818-1.296-7.004.853-8.79 2.35-1.953 5.182.17 7.987-1.464zm14.485 41.299a5.932 5.932 0 0 0 2.418-2.937 3.01 3.01 0 0 1 5.67.634 13.424 13.424 0 0 1 .22 4.138c-.037.361-1.032 8.88-7.483 10.913-2.67.841-7.435.937-9.665-2.495-1.83-2.817-1.296-7.003.853-8.789 2.35-1.953 5.182.17 7.987-1.464zm-39.365 23.914a5.932 5.932 0 0 0-2.418 2.937 3.01 3.01 0 0 1-5.67-.634 13.424 13.424 0 0 1-.22-4.139c.036-.36 1.032-8.88 7.482-10.912 2.67-.841 7.436-.937 9.665 2.494 1.83 2.818 1.296 7.004-.852 8.79-2.35 1.953-5.183-.17-7.987 1.464z"></path>
  <path d="M258.089 491.267a3.5 3.5 0 0 0-4.793 1.236l-.051.087a3.5 3.5 0 1 0 6.029 3.556l.051-.086a3.5 3.5 0 0 0-1.236-4.793Zm48.887-9.193c-8.684 2.737-9.867 13.443-9.913 13.896a16.965 16.965 0 0 0 .278 5.213 6.496 6.496 0 0 0 5.743 5.124q.352.035.697.035a6.305 6.305 0 0 0 5.867-3.854 2.702 2.702 0 0 1 .967-1.303 3.788 3.788 0 0 1 2.034-.153 8.448 8.448 0 0 0 6.428-1.644c3.608-2.998 4.319-9.13 1.551-13.388-3.05-4.693-9.215-5.325-13.652-3.926Zm7.627 11.93a4.12 4.12 0 0 1-1.521.041 9.833 9.833 0 0 0-5.99 1.09 8.89 8.89 0 0 0-3.1 3.09 9.804 9.804 0 0 1 .035-1.538c.007-.066.838-6.608 5.053-7.936a8.069 8.069 0 0 1 2.288-.325 3.905 3.905 0 0 1 3.39 1.388c.913 1.404.55 3.605-.155 4.19Zm-64.798 11.267a3.516 3.516 0 1 0 1.22 4.815l.025-.043a3.479 3.479 0 0 0-1.245-4.772Zm100.776-345.226a3.496 3.496 0 0 0-4.297 2.456l-.027.097a3.5 3.5 0 1 0 6.753 1.841l.027-.096a3.5 3.5 0 0 0-2.456-4.298ZM395.99 466.1a6.336 6.336 0 0 0-6.564 3.818 2.702 2.702 0 0 1-.967 1.304h-.001a3.771 3.771 0 0 1-2.034.153 8.458 8.458 0 0 0-6.428 1.644c-3.608 2.999-4.318 9.13-1.55 13.387 2.135 3.287 5.8 4.582 9.329 4.582a14.534 14.534 0 0 0 4.322-.655c8.67-2.733 9.866-13.44 9.913-13.897a16.954 16.954 0 0 0-.278-5.212 6.495 6.495 0 0 0-5.742-5.124Zm-.943 9.617c-.007.066-.84 6.611-5.053 7.939-1.35.425-4.518.725-5.679-1.064-.913-1.404-.549-3.605.155-4.19a1.146 1.146 0 0 1 .567-.082c.283 0 .63.021.955.041a9.836 9.836 0 0 0 5.989-1.09 8.882 8.882 0 0 0 3.102-3.09 9.83 9.83 0 0 1-.036 1.536Zm-54.396-21.062a8.455 8.455 0 0 0 6.428-1.644c3.607-2.998 4.317-9.13 1.55-13.388-3.05-4.692-9.214-5.323-13.652-3.926-8.685 2.738-9.867 13.444-9.913 13.897a16.962 16.962 0 0 0 .278 5.212 6.496 6.496 0 0 0 5.743 5.124q.352.035.697.035a6.305 6.305 0 0 0 5.867-3.854 2.702 2.702 0 0 1 .967-1.303 3.774 3.774 0 0 1 2.035-.153Zm-5.557-5.896a8.882 8.882 0 0 0-3.102 3.09 9.803 9.803 0 0 1 .036-1.539c.007-.066.838-6.608 5.053-7.936a8.067 8.067 0 0 1 2.287-.325 3.906 3.906 0 0 1 3.391 1.388c.913 1.404.55 3.606-.155 4.19a4.11 4.11 0 0 1-1.521.041 9.837 9.837 0 0 0-5.99 1.091Zm52.43-13.62a16.976 16.976 0 0 0-.276-5.214 6.495 6.495 0 0 0-5.743-5.124 6.33 6.33 0 0 0-6.565 3.82 2.697 2.697 0 0 1-.967 1.302 3.781 3.781 0 0 1-2.034.153 8.456 8.456 0 0 0-6.428 1.644c-3.607 2.998-4.318 9.13-1.55 13.388 2.135 3.287 5.8 4.581 9.329 4.581a14.534 14.534 0 0 0 4.322-.655c8.685-2.738 9.867-13.444 9.913-13.895Zm-12.015 7.218c-1.35.426-4.515.727-5.679-1.063-.913-1.404-.549-3.606.155-4.19a1.146 1.146 0 0 1 .567-.083c.283 0 .63.021.954.042a9.837 9.837 0 0 0 5.99-1.091 8.885 8.885 0 0 0 3.101-3.09 9.797 9.797 0 0 1-.035 1.539c-.007.066-.838 6.608-5.053 7.936Zm-26-299.873-.005.102a3.478 3.478 0 0 0 3.332 3.623l.166.003a3.525 3.525 0 0 0 3.497-3.346l.003-.073a3.5 3.5 0 0 0-6.993-.31Zm9.638 266.698a14.534 14.534 0 0 0 4.322-.656c8.683-2.736 9.866-13.443 9.912-13.895a16.98 16.98 0 0 0-.277-5.214 6.495 6.495 0 0 0-5.742-5.123 6.325 6.325 0 0 0-6.566 3.819 2.697 2.697 0 0 1-.966 1.303 3.771 3.771 0 0 1-2.035.152 8.457 8.457 0 0 0-6.427 1.644c-3.608 2.998-4.319 9.13-1.552 13.389 2.136 3.286 5.801 4.58 9.33 4.58Zm-3.305-12.586a1.146 1.146 0 0 1 .566-.082c.283 0 .63.021.955.041a9.836 9.836 0 0 0 5.99-1.09 8.878 8.878 0 0 0 3.1-3.09 9.8 9.8 0 0 1-.035 1.539c-.007.065-.838 6.608-5.053 7.936-1.351.425-4.517.725-5.678-1.063-.913-1.405-.55-3.606.155-4.19Zm-6.865 85.478c-8.684 2.737-9.867 13.443-9.913 13.896a16.965 16.965 0 0 0 .278 5.213 6.496 6.496 0 0 0 5.743 5.124q.352.035.697.035a6.305 6.305 0 0 0 5.867-3.854 2.702 2.702 0 0 1 .967-1.303 3.787 3.787 0 0 1 2.034-.153 8.448 8.448 0 0 0 6.428-1.644c3.608-2.998 4.319-9.13 1.551-13.388-3.049-4.693-9.215-5.325-13.652-3.926Zm7.627 11.93a4.121 4.121 0 0 1-1.521.041 9.831 9.831 0 0 0-5.99 1.09 8.89 8.89 0 0 0-3.1 3.09 9.804 9.804 0 0 1 .035-1.538c.007-.066.838-6.608 5.053-7.936a8.069 8.069 0 0 1 2.288-.325 3.905 3.905 0 0 1 3.39 1.388c.913 1.404.55 3.605-.155 4.19ZM221.071 438.34l-2.195 2.728 2.142-2.769a3.5 3.5 0 0 0-4.283 5.537l.103.08a3.5 3.5 0 1 0 4.233-5.576Zm-62.46-291.948a3.543 3.543 0 0 0 3.313-3.7 3.5 3.5 0 0 0-6.993.309l.008.15a3.453 3.453 0 0 0 3.483 3.246c.062 0 .125-.002.188-.005Zm51.284 281.51a3.457 3.457 0 0 0-4.883-.247 3.542 3.542 0 0 0-.304 4.949 3.5 3.5 0 1 0 5.3-4.573l-.113-.129Zm38.265 24.169a15.712 15.712 0 0 0-.142-.043 3.459 3.459 0 0 0-4.287 2.368 3.543 3.543 0 0 0 2.37 4.365 3.5 3.5 0 0 0 2.06-6.69Zm-50.168-34.668 3.02-1.77a3.5 3.5 0 1 0-6.04 3.54l.074.123a3.5 3.5 0 0 0 5.993-3.616Zm-3.483-15.436a16.447 16.447 0 0 0-.052-.138 3.46 3.46 0 0 0-4.476-1.987 3.543 3.543 0 0 0-2.047 4.526 3.5 3.5 0 0 0 6.575-2.4Zm-29.333-239.326a3.5 3.5 0 0 0-6.72 1.961l3.388-.883-3.377.921a3.5 3.5 0 0 0 6.753-1.842l-.044-.157Zm2.799 17.447a3.5 3.5 0 0 0-1.442 4.735l.047.088a3.422 3.422 0 0 0 3.037 1.82 3.518 3.518 0 0 0 3.093-5.202 3.5 3.5 0 0 0-4.735-1.441Zm310.207 66.125a18.543 18.543 0 0 0 5.618-13.243v-22.392a13.515 13.515 0 0 0-13.5-13.5h-17.064c-.08 0-.154.018-.232.024a9.382 9.382 0 0 0-5.24 1.846 16.56 16.56 0 0 1 .237-10.042 27.987 27.987 0 0 1 2.384-4.4 31.694 31.694 0 0 0 4.646-10.564 32.569 32.569 0 0 0 6.536-9.254 32.616 32.616 0 0 0 15.567 3.967q1.36 0 2.726-.113a3.5 3.5 0 0 0 3.21-3.553 32.71 32.71 0 0 0-5.063-16.837 47.364 47.364 0 0 0 8.007-7.088 46.387 46.387 0 0 0 11.813-35.287 3.484 3.484 0 0 0-3.562-3.202 46.805 46.805 0 0 0-8.699 1.017 47.224 47.224 0 0 0-5.365-16.557 3.5 3.5 0 0 0-4.549-1.493 46.723 46.723 0 0 0-9.893 6.225 54.327 54.327 0 0 0-11.425-15.361 3.5 3.5 0 0 0-4.788 0 54.296 54.296 0 0 0-11.1 14.745 47.046 47.046 0 0 0-9.113-5.607 3.502 3.502 0 0 0-4.553 1.49 47.146 47.146 0 0 0-5.404 16.79 46.838 46.838 0 0 0-9.761-1.249 3.507 3.507 0 0 0-3.562 3.202 46.826 46.826 0 0 0 19.82 42.375 32.714 32.714 0 0 0-5.062 16.836 3.5 3.5 0 0 0 3.204 3.554q1.382.116 2.76.116a32.528 32.528 0 0 0 15.54-3.967 32.536 32.536 0 0 0 5.73 8.424 26.262 26.262 0 0 1-3.618 7.717 34.07 34.07 0 0 0-2.946 5.527c-2.08 5.316-1.79 11.58.857 18.672a13.512 13.512 0 0 0-12.336 13.44v13.916a18.407 18.407 0 0 0 11.571 17.155l.035 25.725a3.321 3.321 0 0 0 .002 1.523l.032 23.952a2.426 2.426 0 0 0 0 .969l.038 28.046a6.525 6.525 0 0 1-1.957 4.655l-42.825 41.878a63.518 63.518 0 0 0-16.566-10.39l-.828-.356-32.932-90.403a21.692 21.692 0 0 0-4.856-20.893 16.872 16.872 0 0 0 4.12-9.6c.006-.074.01-.149.013-.224 0-.007.18-6.26.479-14.15a16.978 16.978 0 0 0-5.422-13.03 116.66 116.66 0 0 0 5.171-153.357 116.975 116.975 0 0 0-63.814-39.829 30.88 30.88 0 0 0-1.124-2.327 30.43 30.43 0 0 0-8.493-9.864L257.816.689a3.499 3.499 0 0 0-4.212 0l-14.829 11.177a30.421 30.421 0 0 0-8.493 9.865 30.93 30.93 0 0 0-1.124 2.327A116.568 116.568 0 0 0 139.1 137.594a115.728 115.728 0 0 0 31.37 79.604 16.683 16.683 0 0 0-5.307 12.811c.305 7.907.485 14.316.487 14.315a3.89 3.89 0 0 0 .022.405l.003.033a16.78 16.78 0 0 0 4.026 9.499 21.697 21.697 0 0 0-4.85 20.854l-33.596 92.261a63.18 63.18 0 0 0-15.394 9.66l-43.582-42.622a6.53 6.53 0 0 1-1.96-4.665l.038-28.041a3.461 3.461 0 0 0 .05-.478l.073-25.195a3.493 3.493 0 0 0-.087-.759l.034-25.734a18.407 18.407 0 0 0 11.572-17.155v-13.915a13.512 13.512 0 0 0-12.337-13.441c2.647-7.092 2.938-13.355.858-18.669a34.084 34.084 0 0 0-2.947-5.53 26.262 26.262 0 0 1-3.617-7.717 32.535 32.535 0 0 0 5.73-8.424 32.528 32.528 0 0 0 15.54 3.967q1.376 0 2.759-.116a3.5 3.5 0 0 0 3.204-3.554 32.714 32.714 0 0 0-5.062-16.836 46.824 46.824 0 0 0 19.82-42.375 3.496 3.496 0 0 0-3.562-3.202 46.842 46.842 0 0 0-9.761 1.25 47.146 47.146 0 0 0-5.404-16.792 3.501 3.501 0 0 0-4.553-1.489 47.046 47.046 0 0 0-9.112 5.607 54.296 54.296 0 0 0-11.1-14.746 3.5 3.5 0 0 0-4.789 0 54.326 54.326 0 0 0-11.425 15.362 46.723 46.723 0 0 0-9.893-6.225 3.5 3.5 0 0 0-4.549 1.493 47.224 47.224 0 0 0-5.365 16.557 46.805 46.805 0 0 0-8.7-1.017 3.52 3.52 0 0 0-3.561 3.202 46.387 46.387 0 0 0 11.815 35.288 47.355 47.355 0 0 0 8.005 7.087 32.71 32.71 0 0 0-5.062 16.837 3.5 3.5 0 0 0 3.209 3.553q1.366.114 2.726.113a32.623 32.623 0 0 0 15.567-3.967 32.57 32.57 0 0 0 6.536 9.254 31.693 31.693 0 0 0 4.646 10.564 27.996 27.996 0 0 1 2.386 4.404 16.557 16.557 0 0 1 .235 10.038 9.381 9.381 0 0 0-5.24-1.846c-.078-.006-.152-.024-.232-.024H41.7a13.515 13.515 0 0 0-13.5 13.5v22.392a18.542 18.542 0 0 0 5.617 13.243L16.98 345.901a33.498 33.498 0 0 0 9.604 29.536l66.647 65.16v21.713l-.003.03v46.144a3.5 3.5 0 0 0 3.5 3.5h.003a3.5 3.5 0 0 0 3.5-3.5V486.84h48.912v21.645a3.5 3.5 0 0 0 7 0V487.13c8.534 13.666 24.011 22.912 41.935 24.66q.173.016.344.017a3.5 3.5 0 0 0 .335-6.984c-17.992-1.755-33.11-11.984-39.455-26.695-5.563-12.899-2.75-25.827.591-34.401a3.5 3.5 0 0 0-6.522-2.541 61.12 61.12 0 0 0-4.098 17.654H100.23v-33.305a56.862 56.862 0 0 1 40.35-54.146l26-7.756v22.582a83.876 83.876 0 0 0 43.246 73.353l34.57 19.118-16.519 28.022a3.5 3.5 0 1 0 6.03 3.555l18.368-31.16c.009-.016.02-.029.028-.044l.007-.015 56.334-95.57.017-.03 7.3-12.383a26.558 26.558 0 0 1 22.582-13.031 3.483 3.483 0 0 0 .449.03c.114 0 .227-.012.34-.023a26.315 26.315 0 0 1 9.835 2.1l-86.625 146.387a3.5 3.5 0 1 0 6.025 3.564l87.086-147.168 21.916 9.412a56.44 56.44 0 0 1 34.204 51.932l-.022 84.22a3.5 3.5 0 0 0 3.5 3.501 3.5 3.5 0 0 0 3.5-3.499l.018-67.877 66.647-65.17a33.498 33.498 0 0 0 9.605-29.537Zm-14.318-88.266a32.755 32.755 0 0 0 .55-3.257 46.025 46.025 0 0 0 7.565-2.955 25.68 25.68 0 0 1 3.783 9.884 25.605 25.605 0 0 1-11.898-3.672Zm11.706-64.484a40.138 40.138 0 0 1 3.189 12.112 46.901 46.901 0 0 0-7.694 3.719 54.322 54.322 0 0 0-2.475-10.719 39.707 39.707 0 0 1 6.98-5.112Zm-4.103 24a39.951 39.951 0 0 1 19.534-7.67 39.382 39.382 0 0 1-10.193 26.59 40.008 40.008 0 0 1-9.361 7.686c-.06.03-.117.066-.175.099a39.167 39.167 0 0 1-10.56 4.267 54.5 54.5 0 0 0 10.755-30.971Zm-28.632-19.278c.028-.064.058-.128.082-.193a46.93 46.93 0 0 1 9.023-14.074 46.914 46.914 0 0 1 9.272 14.668 3.46 3.46 0 0 0 .192.504 47.254 47.254 0 0 1 3.1 16.92A46.772 46.772 0 0 1 451.94 148.1a47.388 47.388 0 0 1-9.105-49.916Zm-13.429-4.72a39.768 39.768 0 0 1 6.144 4.36 54.344 54.344 0 0 0-2.735 11.469 46.9 46.9 0 0 0-6.643-3.31 40.063 40.063 0 0 1 3.234-12.52Zm-1.288 68.158a25.68 25.68 0 0 1 3.783-9.888 46.024 46.024 0 0 0 7.565 2.955 32.721 32.721 0 0 0 .55 3.26 25.51 25.51 0 0 1-11.898 3.673Zm4.487-17.456c-.057-.033-.112-.068-.17-.098a39.996 39.996 0 0 1-9.361-7.684 39.38 39.38 0 0 1-10.196-26.591 39.991 39.991 0 0 1 19.535 7.669 54.497 54.497 0 0 0 10.754 30.972 39.163 39.163 0 0 1-10.562-4.268Zm14.2 12.04a48.264 48.264 0 0 0 4.9.357h.075c.034 0 .067-.008.1-.01.02.001.04.006.06.006s.04-.005.06-.005c.033 0 .066.01.1.01l.076-.001a48.264 48.264 0 0 0 4.898-.356 25.368 25.368 0 0 1-5.134 10.746 25.368 25.368 0 0 1-5.135-10.746ZM71.984 157.95a32.758 32.758 0 0 0 .55-3.26 46.023 46.023 0 0 0 7.565-2.954 25.68 25.68 0 0 1 3.783 9.888 25.515 25.515 0 0 1-11.898-3.674Zm10.61-64.484a40.062 40.062 0 0 1 3.234 12.52 46.9 46.9 0 0 0-6.643 3.309 54.342 54.342 0 0 0-2.735-11.468 39.764 39.764 0 0 1 6.144-4.361Zm-3.007 23.998a39.991 39.991 0 0 1 19.535-7.669 39.381 39.381 0 0 1-10.194 26.59 40.008 40.008 0 0 1-9.345 7.679c-.086.042-.168.095-.25.145a39.17 39.17 0 0 1-10.494 4.218 54.498 54.498 0 0 0 10.748-30.963ZM50.596 99.09a3.456 3.456 0 0 0 .192-.505 46.913 46.913 0 0 1 9.272-14.668 46.93 46.93 0 0 1 9.023 14.074c.024.066.054.13.082.194a47.182 47.182 0 0 1 3.46 17.824 46.77 46.77 0 0 1-12.565 32.092 46.772 46.772 0 0 1-12.565-32.092 47.253 47.253 0 0 1 3.1-16.919ZM36.43 93.463a39.707 39.707 0 0 1 6.98 5.112 54.322 54.322 0 0 0-2.475 10.719 46.9 46.9 0 0 0-7.694-3.719 40.138 40.138 0 0 1 3.19-12.112Zm-.192 68.156a25.68 25.68 0 0 1 3.783-9.884 46.036 46.036 0 0 0 7.565 2.955 32.755 32.755 0 0 0 .55 3.257 25.599 25.599 0 0 1-11.898 3.672Zm4.49-17.45c-.058-.034-.115-.07-.175-.1a39.997 39.997 0 0 1-9.36-7.684A39.383 39.383 0 0 1 21 109.794a39.951 39.951 0 0 1 19.534 7.67 54.5 54.5 0 0 0 10.755 30.971 39.167 39.167 0 0 1-10.56-4.266Zm19.332 22.785a25.368 25.368 0 0 1-5.134-10.746 48.264 48.264 0 0 0 4.898.356h.076c.034 0 .067-.008.1-.01.02.001.04.006.06.006s.04-.005.06-.005c.033 0 .065.01.099.01l.077-.001a48.264 48.264 0 0 0 4.899-.356 25.368 25.368 0 0 1-5.135 10.746ZM35.2 210.578a6.508 6.508 0 0 1 6.5-6.5h16.89a2.5 2.5 0 0 1 2.395 3.22l-3.395 11.297a2.485 2.485 0 0 1-2.394 1.78H35.2Zm0 16.797h19.996a9.443 9.443 0 0 0 9.098-6.766l2.596-8.637h1.609a6.508 6.508 0 0 1 6.5 6.5v13.915a11.449 11.449 0 0 1-8.084 10.981l-8.284 2.577a3.5 3.5 0 1 0 2.08 6.684l2.713-.844-.028 20.74H36.472l3.755-22.228.078.033 1.493.55a3.5 3.5 0 0 0 2.42-6.569l-1.493-.55a11.544 11.544 0 0 1-7.525-10.79Zm.35 52.15h27.837l-.024 18.195H32.418Zm-4.074 90.907a26.496 26.496 0 0 1-7.595-23.365l7.153-42.347h32.32l-.034 25.011a13.567 13.567 0 0 0 4.063 9.686l11.68 11.424-23.115 43.517Zm29.69 29.026 23.114-43.516 8.891 8.695-23.11 43.518Zm87.976 66.381v14H100.23v-14ZM93.23 425.534v5.274l-17.953-17.552 23.111-43.517 12.382 12.11a63.697 63.697 0 0 0-17.54 43.685Zm187.91-374.61a30.53 30.53 0 0 0 3.367-19.088 109.589 109.589 0 0 1 80.813 105.758 108.828 108.828 0 0 1-36.12 81.33l5.563-44.112a71.742 71.742 0 0 0 .078-17.258 81.57 81.57 0 0 0-38.84-90.903 18.034 18.034 0 0 0-15.006-15.46Zm16.655 296.564a74.2 74.2 0 0 1-83.942-.205 23.603 23.603 0 0 0 8.067-17.669v-7.481a70.026 70.026 0 0 0 32.088 7.708h1.703a71.249 71.249 0 0 0 33.789-8.436v8.21a23.617 23.617 0 0 0 8.295 17.873Zm-6.775-35.137a64.159 64.159 0 0 1-35.309 10.49h-1.703a62.838 62.838 0 0 1-58.046-38.315l-.01-.038c-.009-.02-.022-.035-.03-.055a62.371 62.371 0 0 1-4.83-24.167v-26.17a3.502 3.502 0 0 0 0-.652v-.47a36.78 36.78 0 0 1 15.371-29.871l.493-.352a44.594 44.594 0 0 1 25.977-8.344 45.078 45.078 0 0 1 6.023.404l16.287 2.194a3.48 3.48 0 0 0 .935 0l16.287-2.194a44.612 44.612 0 0 1 32 7.94l.494.352a36.778 36.778 0 0 1 15.37 29.87v25.245a64.46 64.46 0 0 1-5.368 25.83c-.008.016-.02.03-.027.046-.01.022-.014.046-.024.069a64.566 64.566 0 0 1-13.507 19.75 65.22 65.22 0 0 1-10.312 8.393l-.07.045Zm18.003-114.947-.49-.35a51.589 51.589 0 0 0-37.002-9.18l-15.82 2.13-15.82-2.13a51.6 51.6 0 0 0-37.004 9.182l-.492.351a43.692 43.692 0 0 0-13.781 16.267l-5.011-39.737a64.718 64.718 0 0 1-.015-16.065c.004-.024.005-.05.009-.074a64.289 64.289 0 0 1 29.2-46.223 17.922 17.922 0 0 0 11.798 4.432h62.232a17.922 17.922 0 0 0 11.797-4.432 64.288 64.288 0 0 1 29.2 46.223c.002.025.004.05.008.074a64.72 64.72 0 0 1-.015 16.065l-5.01 39.735a43.704 43.704 0 0 0-13.784-16.268Zm-124.93 53.426v2.154h-1.853a9.636 9.636 0 0 1-9.59-8.807l-.004-.065a1579.9 1579.9 0 0 0-.488-14.37 9.646 9.646 0 0 1 3.265-7.571q3.86 3.652 8.088 6.992l.579 4.59v17.051c0 .01.002.017.003.026Zm-8.734 7.658a16.585 16.585 0 0 0 6.881 1.496h1.852v.282a69.551 69.551 0 0 0 3.973 23.257 14.976 14.976 0 0 1-2.355.202 14.735 14.735 0 0 1-10.35-25.237Zm116.437-177.8a18.064 18.064 0 0 0 3.512-6.304 74.604 74.604 0 0 1 35.012 63.21c0 .625-.014 1.248-.03 1.871a71.244 71.244 0 0 0-27.363-33.436 17.955 17.955 0 0 0-11.131-25.34Zm6.046 17.303a11.028 11.028 0 0 1-11.015 11.016h-62.232a11.016 11.016 0 1 1 0-22.031h62.232a11.028 11.028 0 0 1 11.015 11.015Zm-91.263 0a17.879 17.879 0 0 0 1.915 8.037 71.244 71.244 0 0 0-27.364 33.437 75.26 75.26 0 0 1-.03-1.87 74.574 74.574 0 0 1 35.014-63.209 18.067 18.067 0 0 0 3.511 6.302 18.036 18.036 0 0 0-13.046 17.303ZM335.95 222.215a9.934 9.934 0 0 1 3.383 7.797c-.277 7.287-.452 13.186-.478 14.092a9.856 9.856 0 0 1-4.147 7.085c-.081.047-.155.105-.232.159a9.864 9.864 0 0 1-5.456 1.636h-1.691v-19.367c.012-.067.034-.13.043-.198l.537-4.256q4.2-3.316 8.041-6.948Zm-8.664 37.77h1.734a16.92 16.92 0 0 0 7.02-1.527 14.735 14.735 0 0 1-13.271 24.965 71.488 71.488 0 0 0 4.517-23.439Zm-90.85-234.918a23.47 23.47 0 0 1 6.553-7.61l12.721-9.59 12.723 9.59a23.633 23.633 0 0 1 6.552 30.132l-1.818 3.355h-34.912l-1.819-3.355a23.553 23.553 0 0 1 0-22.522Zm38.808 32.877H278.15a11.016 11.016 0 1 1 0 22.032h-44.878a11.016 11.016 0 0 1 0-22.032ZM146.1 137.594a109.589 109.589 0 0 1 80.814-105.759 30.532 30.532 0 0 0 3.368 19.09l.144.266a18.033 18.033 0 0 0-15.005 15.464 81.564 81.564 0 0 0-38.842 90.899 71.745 71.745 0 0 0 .078 17.259l5.563 44.11q-2.122-1.913-4.129-3.92l-.003-.004a108.79 108.79 0 0 1-31.988-77.405Zm22.86 218.023-29.14 8.693 29.514-81.05a21.587 21.587 0 0 0 21.452 6.847 69.484 69.484 0 0 0 13.73 19.36 70.263 70.263 0 0 0 10.404 8.546v11.601a16.581 16.581 0 0 1-11.78 15.806l-34.151 10.188Zm78.991 117.035-34.736-19.21a76.873 76.873 0 0 1-39.635-67.228v-24.67l.498-.149a111.687 111.687 0 0 0 8.288 8.113 3.477 3.477 0 0 0-1.146 2.784c0 .017.008.132.01.15a3.498 3.498 0 0 0 3.485 3.237c.087 0 .175-.004.263-.01a3.492 3.492 0 0 0 2.75-1.71 111.626 111.626 0 0 0 15.202 9.932v2.323a47.503 47.503 0 0 0 24.496 41.543l26.59 14.71a3.5 3.5 0 0 0 3.389 0l12.376-6.85Zm-63.238-100.569.622-.037.009.008Zm92.067 51.66-21.07 11.661-24.895-13.772a40.486 40.486 0 0 1-20.845-34.23 111.188 111.188 0 0 0 32.442 9.15 17.498 17.498 0 1 0 26.654.062 111.535 111.535 0 0 0 27.86-7.046Zm-31.57-15.847a10.5 10.5 0 1 1 10.5 10.5 10.511 10.511 0 0 1-10.5-10.5Zm64.72-40.39-6.847 11.616a104.128 104.128 0 0 1-121.488-19.97l23.542-7.023a22.992 22.992 0 0 0 2.303-.836 81.186 81.186 0 0 0 96.87.145c.643.256 1.298.49 1.969.69l14.326 4.275a33.294 33.294 0 0 0-10.675 11.102Zm42.08-13.77a33.38 33.38 0 0 0-21.44-1.664l-22.292-6.652a16.586 16.586 0 0 1-11.778-15.806V317.09a71.817 71.817 0 0 0 23.435-27.139 21.761 21.761 0 0 0 22.149-6.678l28.589 78.48Zm127.773-56.016h-31.146l-.024-18.195h28.097Zm-28.38-92.634a2.477 2.477 0 0 1 2.007-1.008h16.89a6.508 6.508 0 0 1 6.5 6.5v9.797h-19.996a2.485 2.485 0 0 1-2.394-1.78l-3.395-11.297a2.477 2.477 0 0 1 .388-2.212Zm-14.402 27.301v-13.915a6.508 6.508 0 0 1 6.5-6.5h1.61l2.595 8.637a9.443 9.443 0 0 0 9.098 6.766H476.8v5.595a11.543 11.543 0 0 1-7.524 10.79l-1.493.551a3.5 3.5 0 1 0 2.419 6.569l1.493-.55c.027-.01.052-.023.078-.033l3.755 22.228h-26.924l-.028-20.74 2.714.844a3.5 3.5 0 1 0 2.079-6.684l-8.284-2.577a11.448 11.448 0 0 1-8.084-10.98Zm-18.23 198.429.002-6.55a63.42 63.42 0 0 0-16.847-43.102l11.685-11.427 23.114 43.523Zm23.17-22.657-23.113-43.523 8.891-8.696 23.117 43.521Zm38.582-37.727-24.47 23.929-23.117-43.521 11.683-11.425a13.56 13.56 0 0 0 4.061-9.676l-.033-25.02h32.319l7.153 42.349a26.496 26.496 0 0 1-7.596 23.364ZM348.385 122.276a3.5 3.5 0 0 0 6.91-1.118l-.018-.106a3.462 3.462 0 0 0-4.008-2.839 3.543 3.543 0 0 0-2.884 4.063Zm-114.39 324.17a16.274 16.274 0 0 0-.128-.066 3.457 3.457 0 0 0-4.642 1.567 3.542 3.542 0 0 0 1.558 4.718 3.5 3.5 0 1 0 3.213-6.22ZM314.172 400a3.499 3.499 0 0 0 3.018-1.722l.051-.087a3.5 3.5 0 0 0-6.03-3.557l-.05.087a3.5 3.5 0 0 0 3.01 5.279Zm-8.274 13.98a3.498 3.498 0 0 0 3.014-1.714l.051-.086a3.5 3.5 0 0 0-6.02-3.572l-.051.087a3.5 3.5 0 0 0 3.006 5.286Zm16.547-27.961a3.5 3.5 0 0 0 3.011-1.71l.052-.086a3.5 3.5 0 1 0-6.015-3.582l-.052.087a3.5 3.5 0 0 0 3.004 5.291Zm8.274-13.981a3.499 3.499 0 0 0 3.018-1.722l.052-.087a3.5 3.5 0 1 0-6.03-3.557l-.051.087a3.5 3.5 0 0 0 3.011 5.279Zm-57.915 97.867a3.498 3.498 0 0 0 3.014-1.715l.051-.086a3.5 3.5 0 1 0-6.02-3.571l-.052.086a3.5 3.5 0 0 0 3.007 5.286Zm-10.048 13.496a3.499 3.499 0 0 0 4.793-1.237l.051-.086a3.5 3.5 0 0 0-6.03-3.557l-.05.087a3.5 3.5 0 0 0 1.236 4.793Zm18.322-27.477a3.499 3.499 0 0 0 3.018-1.722l.051-.087a3.5 3.5 0 0 0-6.03-3.556l-.05.086a3.5 3.5 0 0 0 3.01 5.28Zm16.547-27.962a3.499 3.499 0 0 0 3.018-1.722l.051-.087a3.5 3.5 0 1 0-6.029-3.556l-.051.087a3.5 3.5 0 0 0 3.011 5.278Zm-8.274 13.981a3.5 3.5 0 0 0 3.01-1.71l.053-.086a3.5 3.5 0 1 0-6.015-3.582l-.052.087a3.5 3.5 0 0 0 3.004 5.291Zm-99.076-54.706-.03-.146a3.456 3.456 0 0 0-4.115-2.655 3.543 3.543 0 0 0-2.723 4.154 3.5 3.5 0 1 0 6.868-1.353Zm113.74-330.166a3.5 3.5 0 0 0 3.691-5.947l-.146-.088a3.5 3.5 0 0 0-3.545 6.035ZM227.38 235.61a16.065 16.065 0 0 1-9.108 2.64 15.81 15.81 0 0 1-8.363-2.64 3.5 3.5 0 1 0-3.869 5.834 22.797 22.797 0 0 0 12.067 3.804c.179.004.355.006.53.006a23.11 23.11 0 0 0 12.61-3.81 3.5 3.5 0 0 0-3.867-5.834Zm28.33-14.466a3.5 3.5 0 1 0-3.5-3.5 3.5 3.5 0 0 0 3.5 3.5Zm11.653 68.27a21.336 21.336 0 0 1-12.149 3.52 21.076 21.076 0 0 1-11.154-3.52 3.5 3.5 0 0 0-3.87 5.833 28.07 28.07 0 0 0 14.86 4.685c.219.005.435.007.651.007a28.457 28.457 0 0 0 15.529-4.69 3.5 3.5 0 1 0-3.867-5.836Zm39.001-52.82a3.499 3.499 0 0 0-4.85-.984 15.755 15.755 0 0 1-17.472 0 3.5 3.5 0 0 0-3.87 5.834 22.793 22.793 0 0 0 12.068 3.804q.267.006.53.006a23.112 23.112 0 0 0 12.61-3.81 3.5 3.5 0 0 0 .984-4.85Zm36.572-133.835a3.5 3.5 0 0 0 6.485-2.635l-3.28 1.225 3.254-1.291a3.5 3.5 0 1 0-6.507 2.582l.048.119Zm-4.129 78.59-.058.109a3.5 3.5 0 1 0 6.2 3.252l.035-.068a3.5 3.5 0 0 0-6.177-3.294Zm-16.19-111.003a3.5 3.5 0 0 0 2.424-6.026l-.099-.093a3.472 3.472 0 0 0-4.923.175 3.528 3.528 0 0 0 .176 4.97 3.488 3.488 0 0 0 2.423.974ZM158.98 125.377a3.495 3.495 0 0 0 4.021-2.886l.018-.107a3.5 3.5 0 0 0-6.91-1.118l3.438.658-3.453-.567a3.5 3.5 0 0 0 2.886 4.02Zm174.404-40.53a3.5 3.5 0 1 0 5.778-3.953l-2.945 1.894 2.896-1.965a3.5 3.5 0 1 0-5.792 3.93ZM188.687 70.424a3.57 3.57 0 0 0 2.447-.966 3.5 3.5 0 0 0-4.794-5.1l-.098.093a3.483 3.483 0 0 0 2.445 5.973Zm-15.58 15.506a3.466 3.466 0 0 0 1.93.585 3.528 3.528 0 1 0-2.813-5.568l-.096.142a3.487 3.487 0 0 0 .978 4.841Zm-9.207 18.944a3.46 3.46 0 0 0 1.263.239 3.533 3.533 0 1 0-3.194-4.912l-.062.155a3.485 3.485 0 0 0 1.993 4.518Zm41.5-47.175a3.482 3.482 0 0 0 1.804-.504l.1-.06a3.5 3.5 0 0 0-3.646-5.976l1.738 3.04-1.808-2.997a3.5 3.5 0 0 0 1.811 6.497Zm92.31 95.791a10.5 10.5 0 1 0 10.5 10.5 10.512 10.512 0 0 0-10.5-10.5Zm0 14a3.5 3.5 0 1 1 3.5-3.5 3.504 3.504 0 0 1-3.5 3.5Zm-42-26.665a15.974 15.974 0 1 0 15.975 15.974 15.992 15.992 0 0 0-15.975-15.974Zm0 24.948a8.974 8.974 0 1 1 8.975-8.974 8.985 8.985 0 0 1-8.975 8.974Zm0-121.697a11.125 11.125 0 1 0-11.125-11.126 11.138 11.138 0 0 0 11.125 11.126Zm0-15.25a4.125 4.125 0 1 1-4.125 4.124 4.13 4.13 0 0 1 4.125-4.125Zm-42 124.664a10.5 10.5 0 1 0 10.5 10.5 10.512 10.512 0 0 0-10.5-10.5Zm0 14a3.5 3.5 0 1 1 3.5-3.5 3.504 3.504 0 0 1-3.5 3.5Z"></path>
</svg>
